<svg width="18" height="18" viewBox="0 0 18 18" fill="none" xmlns="http://www.w3.org/2000/svg">
<path d="M3.51218 2.5H0.90625V0.5H5.30032L5.74913 4.5H16.9062V10.4384L4.67566 12.8694L3.51218 2.5ZM16.4062 17.5C15.5778 17.5 14.9062 16.8284 14.9062 16C14.9062 15.1716 15.5778 14.5 16.4062 14.5C17.2347 14.5 17.9062 15.1716 17.9062 16C17.9062 16.8284 17.2347 17.5 16.4062 17.5ZM6.40625 17.5C5.57782 17.5 4.90625 16.8284 4.90625 16C4.90625 15.1716 5.57782 14.5 6.40625 14.5C7.23468 14.5 7.90625 15.1716 7.90625 16C7.90625 16.8284 7.23468 17.5 6.40625 17.5Z" fill="#007E60"/>
</svg>
