<svg width="1114" height="650" viewBox="0 0 1114 650" fill="none" xmlns="http://www.w3.org/2000/svg">
<g opacity="0.1">
<path d="M649.35 831.52C749.929 831.52 831.464 749.985 831.464 649.406C831.464 548.827 749.929 467.292 649.35 467.292C548.771 467.292 467.236 548.827 467.236 649.406C467.236 749.985 548.771 831.52 649.35 831.52Z" stroke="white" stroke-width="1.05"/>
<path d="M649.35 977.531C830.568 977.531 977.475 830.625 977.475 649.406C977.475 468.188 830.568 321.281 649.35 321.281C468.132 321.281 321.225 468.188 321.225 649.406C321.225 830.625 468.132 977.531 649.35 977.531Z" stroke="white" stroke-width="1.05"/>
<path d="M649.35 1136.08C918.133 1136.08 1136.02 918.189 1136.02 649.406C1136.02 380.623 918.133 162.731 649.35 162.731C380.567 162.731 162.675 380.623 162.675 649.406C162.675 918.189 380.567 1136.08 649.35 1136.08Z" stroke="white" stroke-width="1.05"/>
<path d="M649.35 1297.78C1007.44 1297.78 1297.73 1007.49 1297.73 649.406C1297.73 291.319 1007.44 1.03125 649.35 1.03125C291.262 1.03125 0.975006 291.319 0.975006 649.406C0.975006 1007.49 291.262 1297.78 649.35 1297.78Z" stroke="white" stroke-width="1.05"/>
</g>
</svg>
