<svg width="1512" height="748" viewBox="0 0 1512 748" fill="none" xmlns="http://www.w3.org/2000/svg">
<g opacity="0.2">
<path opacity="0.1" d="M1816.22 265.844C2309.6 265.844 2709.57 -134.121 2709.57 -627.503C2709.57 -1120.88 2309.6 -1520.85 1816.22 -1520.85C1322.84 -1520.85 922.873 -1120.88 922.873 -627.503C922.873 -134.121 1322.84 265.844 1816.22 265.844Z" stroke="white" stroke-width="3.90418"/>
<path opacity="0.1" d="M2057.04 45.5142C2550.42 45.5142 2950.39 -354.451 2950.39 -847.833C2950.39 -1341.21 2550.42 -1741.18 2057.04 -1741.18C1563.66 -1741.18 1163.7 -1341.21 1163.7 -847.833C1163.7 -354.451 1563.66 45.5142 2057.04 45.5142Z" stroke="white" stroke-width="3.90418"/>
<path opacity="0.1" d="M1519.46 414.22C2012.84 414.22 2412.81 14.2548 2412.81 -479.127C2412.81 -972.509 2012.84 -1372.47 1519.46 -1372.47C1026.08 -1372.47 626.116 -972.509 626.116 -479.127C626.116 14.2548 1026.08 414.22 1519.46 414.22Z" stroke="white" stroke-width="3.90418"/>
<path opacity="0.1" d="M1286.1 566.917C1808.92 566.917 2232.74 143.089 2232.74 -379.729C2232.74 -902.548 1808.92 -1326.38 1286.1 -1326.38C763.278 -1326.38 339.45 -902.548 339.45 -379.729C339.45 143.089 763.278 566.917 1286.1 566.917Z" stroke="white" stroke-width="3.90418"/>
<path opacity="0.1" d="M2068.82 -223.912C2068.82 367.839 1607.41 847.418 1038.38 847.418C469.364 847.418 7.95374 367.839 7.95374 -223.912C7.95374 -815.664 469.364 -1295.24 1038.38 -1295.24C1607.41 -1295.24 2068.82 -815.664 2068.82 -223.912Z" stroke="white" stroke-width="3.90418"/>
<path opacity="0.1" d="M2154.57 -196.206C2154.57 482.881 1594.92 1033.44 904.471 1033.44C214.029 1033.44 -345.63 482.881 -345.63 -196.206C-345.63 -875.294 214.029 -1425.85 904.471 -1425.85C1594.92 -1425.85 2154.57 -875.294 2154.57 -196.206Z" stroke="white" stroke-width="3.90418"/>
</g>
</svg>
