<svg width="80" height="81" viewBox="0 0 80 81" fill="none" xmlns="http://www.w3.org/2000/svg">
<g clip-path="url(#clip0_1_101)">
<path d="M60 0.65625H20C8.9543 0.65625 0 9.61055 0 20.6562V60.6562C0 71.7019 8.9543 80.6562 20 80.6562H60C71.0457 80.6562 80 71.7019 80 60.6562V20.6562C80 9.61055 71.0457 0.65625 60 0.65625Z" fill="#007E60"/>
<path opacity="0.2" d="M24.936 39.7139V48.4976C24.936 49.1632 25.2004 49.8015 25.6711 50.2722C26.1417 50.7428 26.7801 51.0072 27.4457 51.0072H29.9553C30.6209 51.0072 31.2592 50.7428 31.7298 50.2722C32.2005 49.8015 32.4649 49.1632 32.4649 48.4976V42.2236C32.4649 41.558 32.2005 40.9196 31.7298 40.449C31.2592 39.9783 30.6209 39.7139 29.9553 39.7139H24.936Z" fill="white"/>
<path opacity="0.2" d="M55.2798 39.7139H50.2606C49.595 39.7139 48.9567 39.9783 48.486 40.449C48.0154 40.9196 47.751 41.558 47.751 42.2236V48.4976C47.751 49.1632 48.0154 49.8015 48.486 50.2722C48.9567 50.7428 49.595 51.0072 50.2606 51.0072H52.7702C53.4358 51.0072 54.0741 50.7428 54.5448 50.2722C55.0154 49.8015 55.2798 49.1632 55.2798 48.4976V39.7139Z" fill="white"/>
<path d="M55.2798 39.714C55.2798 37.727 54.8865 35.7596 54.1226 33.9253C53.3587 32.091 52.2394 30.426 50.829 29.0263C49.4187 27.6266 47.7452 26.5199 45.9052 25.77C44.0651 25.02 42.0949 24.6417 40.1079 24.6567C38.1209 24.6417 36.1507 25.02 34.3106 25.77C32.4705 26.5199 30.7971 27.6266 29.3868 29.0263C27.9764 30.426 26.8571 32.091 26.0932 33.9253C25.3293 35.7596 24.936 37.727 24.936 39.714V48.4977C24.936 49.1632 25.2004 49.8016 25.6711 50.2722C26.1417 50.7429 26.7801 51.0073 27.4457 51.0073H29.9553C30.6209 51.0073 31.2592 50.7429 31.7298 50.2722C32.2005 49.8016 32.4649 49.1632 32.4649 48.4977V42.2236C32.4649 41.558 32.2005 40.9197 31.7298 40.4491C31.2592 39.9784 30.6209 39.714 29.9553 39.714H24.936M55.2798 39.714H50.2605C49.5949 39.714 48.9566 39.9784 48.486 40.4491C48.0153 40.9197 47.7509 41.558 47.7509 42.2236V48.4977C47.7509 49.1632 48.0153 49.8016 48.486 50.2722C48.9566 50.7429 49.5949 51.0073 50.2605 51.0073H52.7701C53.4357 51.0073 54.0741 50.7429 54.5447 50.2722C55.0154 49.8016 55.2798 49.1632 55.2798 48.4977V39.714Z" stroke="white" stroke-width="2.5" stroke-linecap="round" stroke-linejoin="round"/>
<path d="M55.2798 48.4976V52.262C55.2798 53.5932 54.751 54.8699 53.8097 55.8112C52.8684 56.7525 51.5917 57.2813 50.2605 57.2813H41.2485" stroke="white" stroke-width="2.5" stroke-linecap="round" stroke-linejoin="round"/>
</g>
<defs>
<clipPath id="clip0_1_101">
<rect width="80" height="80" fill="white" transform="translate(0 0.65625)"/>
</clipPath>
</defs>
</svg>
