<svg width="22" height="23" viewBox="0 0 22 23" fill="none" xmlns="http://www.w3.org/2000/svg">
<path opacity="0.15" d="M11 2.71875C9.17664 2.71875 7.42796 3.44308 6.13865 4.7324C4.84933 6.02171 4.125 7.77039 4.125 9.59375C4.125 15.7812 11 20.5938 11 20.5938C11 20.5938 17.875 15.7812 17.875 9.59375C17.875 7.77039 17.1507 6.02171 15.8614 4.7324C14.572 3.44308 12.8234 2.71875 11 2.71875ZM11 12.3438C10.4561 12.3438 9.92442 12.1825 9.47218 11.8802C9.01995 11.5781 8.66747 11.1486 8.45933 10.6461C8.25119 10.1436 8.19673 9.5907 8.30284 9.05725C8.40895 8.5238 8.67086 8.0338 9.05546 7.64921C9.44005 7.26461 9.93005 7.0027 10.4635 6.89659C10.9969 6.79048 11.5499 6.84494 12.0524 7.05308C12.5549 7.26122 12.9844 7.6137 13.2865 8.06593C13.5887 8.51817 13.75 9.04985 13.75 9.59375C13.75 10.3231 13.4603 11.0225 12.9445 11.5382C12.4288 12.0541 11.7293 12.3438 11 12.3438Z" fill="#007E60"/>
<path d="M11 12.3438C12.5188 12.3438 13.75 11.1126 13.75 9.59375C13.75 8.07497 12.5188 6.84375 11 6.84375C9.48122 6.84375 8.25 8.07497 8.25 9.59375C8.25 11.1126 9.48122 12.3438 11 12.3438Z" stroke="#007E60" stroke-width="1.2" stroke-linecap="round" stroke-linejoin="round"/>
<path d="M17.875 9.59375C17.875 15.7812 11 20.5938 11 20.5938C11 20.5938 4.125 15.7812 4.125 9.59375C4.125 7.77039 4.84933 6.0217 6.13864 4.73239C7.42795 3.44308 9.17664 2.71875 11 2.71875C12.8234 2.71875 14.572 3.44308 15.8614 4.73239C17.1507 6.0217 17.875 7.77039 17.875 9.59375Z" stroke="#007E60" stroke-width="1.2" stroke-linecap="round" stroke-linejoin="round"/>
</svg>
