<svg width="270" height="152" viewBox="0 0 270 152" fill="none" xmlns="http://www.w3.org/2000/svg">
<g opacity="0.6">
<path d="M48.3314 95.042H87.1351V56.2383H48.3314V95.042ZM79.6663 71.9066H71.4669V63.707H79.6663V71.9066ZM55.7987 63.707H64.0027V79.3737H79.6663V87.5733H55.7987V63.707ZM112.404 56.2383C108.566 56.2383 104.815 57.3763 101.625 59.5082C98.4339 61.6401 95.9472 64.6702 94.4787 68.2155C93.0103 71.7607 92.626 75.6616 93.3746 79.4253C94.1232 83.1888 95.9711 86.6459 98.6845 89.3593C101.398 92.0727 104.855 93.9206 108.619 94.6692C112.382 95.4178 116.283 95.0335 119.829 93.5651C123.373 92.0966 126.404 89.6099 128.536 86.4192C130.668 83.2286 131.806 79.4775 131.806 75.6402C131.8 70.4963 129.753 65.5649 126.116 61.9276C122.479 58.2904 117.548 56.2443 112.404 56.2383ZM112.404 87.5733C110.043 87.5733 107.736 86.8733 105.774 85.5622C103.812 84.2509 102.282 82.3872 101.379 80.2067C100.476 78.0263 100.239 75.627 100.7 73.3121C101.16 70.9974 102.297 68.8711 103.966 67.2022C105.635 65.5334 107.761 64.3969 110.076 63.9364C112.39 63.4759 114.79 63.7123 116.971 64.6154C119.15 65.5186 121.015 67.0481 122.326 69.0105C123.636 70.9728 124.337 73.28 124.337 75.6402C124.332 78.8035 123.073 81.836 120.837 84.0729C118.6 86.3096 115.567 87.5684 112.404 87.5733ZM201.234 56.2383C197.397 56.238 193.646 57.3757 190.455 59.5074C187.264 61.6391 184.777 64.6692 183.309 68.2144C181.84 71.7595 181.455 75.6607 182.203 79.4243C182.953 83.188 184.799 86.6452 187.513 89.3587C190.227 92.0724 193.683 93.9203 197.448 94.6691C201.211 95.4178 205.112 95.0337 208.658 93.5653C212.202 92.0968 215.233 89.61 217.365 86.4194C219.496 83.2287 220.634 79.4775 220.634 75.6402C220.629 70.4965 218.583 65.5654 214.946 61.9282C211.309 58.2909 206.378 56.2448 201.234 56.2383ZM201.234 87.5733C198.874 87.5735 196.567 86.8739 194.605 85.5629C192.642 84.2518 191.113 82.3883 190.208 80.2077C189.305 78.0273 189.069 75.628 189.529 73.313C189.99 70.9982 191.125 68.8718 192.794 67.2028C194.463 65.5337 196.59 64.3971 198.905 63.9365C201.219 63.4759 203.619 63.7122 205.8 64.6153C207.979 65.5185 209.843 67.0479 211.155 69.0104C212.466 70.9727 213.166 73.28 213.166 75.6402C213.161 78.8033 211.902 81.8354 209.667 84.0723C207.43 86.309 204.397 87.568 201.234 87.5733ZM156.818 56.2383C152.982 56.2383 149.23 57.3763 146.039 59.5082C142.849 61.6401 140.362 64.6702 138.894 68.2155C137.425 71.7607 137.041 75.6616 137.789 79.4253C138.538 83.1888 140.386 86.6459 143.099 89.3593C145.812 92.0727 149.269 93.9206 153.033 94.6692C156.797 95.4178 160.698 95.0335 164.243 93.5651C167.788 92.0966 170.819 89.6099 172.951 86.4192C175.083 83.2286 176.221 79.4775 176.221 75.6402C176.214 70.4963 174.168 65.5649 170.531 61.9276C166.894 58.2904 161.962 56.2443 156.818 56.2383ZM156.818 87.5733C154.619 87.5743 152.463 86.9678 150.587 85.8206C148.711 84.6736 147.189 83.0303 146.188 81.0725C145.186 79.1146 144.746 76.9182 144.915 74.7258C145.082 72.5334 145.854 70.4301 147.142 68.6481C148.43 66.8663 150.186 65.4749 152.216 64.628C154.245 63.7809 156.469 63.5111 158.642 63.8482C160.814 64.1852 162.852 65.1162 164.529 66.5382C166.207 67.9603 167.458 69.818 168.146 71.9066H156.818V79.3737H168.146C167.358 81.757 165.84 83.8315 163.806 85.3032C161.773 86.775 159.328 87.5692 156.818 87.5733Z" fill="#0D0E10"/>
</g>
</svg>
