<svg width="207" height="42" viewBox="0 0 207 42" fill="none" xmlns="http://www.w3.org/2000/svg">
<g opacity="0.5">
<path d="M30.9056 18.4009C30.33 18.9798 29.8892 19.6788 29.6147 20.4476C29.34 21.2166 29.2384 22.0366 29.317 22.8493L29.2897 22.8219C29.3703 23.7786 29.2414 24.7411 28.9117 25.6428C28.5819 26.5444 28.0595 27.3632 27.3806 28.0419C26.7019 28.7208 25.8831 29.2432 24.9815 29.573C24.0799 29.9027 23.1171 30.0316 22.1607 29.951L22.188 29.9783C21.0437 29.8718 19.8943 30.1207 18.8969 30.6914C17.8992 31.262 17.102 32.1263 16.6137 33.1667C16.1253 34.2068 15.9697 35.3726 16.1682 36.5044C16.3665 37.6363 16.9092 38.6795 17.7222 39.4919C18.5351 40.3041 19.5788 40.8458 20.7109 41.0432C21.8431 41.2405 23.0086 41.0839 24.0485 40.5947C25.0883 40.1053 25.952 39.3073 26.5217 38.3091C27.0912 37.3112 27.3393 36.1616 27.2318 35.0175L27.2606 35.0448C27.1798 34.0882 27.3087 33.1255 27.6385 32.224C27.9682 31.3224 28.4906 30.5036 29.1695 29.8247C29.8484 29.146 30.6672 28.6234 31.5686 28.2938C32.4703 27.9641 33.433 27.835 34.3896 27.9158L34.3608 27.8885C35.2955 27.9725 36.2363 27.8193 37.0959 27.443C37.9557 27.0665 38.7064 26.4793 39.2788 25.7354C39.8511 24.9917 40.2264 24.1154 40.3698 23.188C40.5134 22.2605 40.4204 21.312 40.0996 20.4299C39.7788 19.548 39.2407 18.7613 38.535 18.1427C37.8291 17.524 36.9786 17.0937 36.0623 16.8914C35.1458 16.6891 34.1932 16.7213 33.2924 16.9851C32.3918 17.249 31.5724 17.736 30.9102 18.4009H30.9056Z" fill="#0D0E10"/>
<path d="M19.7016 26.3969L19.6728 26.3696C20.4858 26.4516 21.3069 26.3517 22.0766 26.0775C22.8463 25.8032 23.5456 25.3613 24.1236 24.7837C24.7015 24.206 25.144 23.5072 25.4189 22.7377C25.6938 21.9682 25.7942 21.1473 25.7128 20.3341L25.7417 20.3614C25.661 19.4049 25.79 18.4422 26.1197 17.5406C26.4494 16.6389 26.9719 15.8202 27.6506 15.1415C28.3295 14.4626 29.1483 13.9401 30.0499 13.6104C30.9515 13.2806 31.9141 13.1517 32.8707 13.2324L32.8419 13.205C33.9861 13.3125 35.1358 13.0643 36.134 12.4944C37.1322 11.9246 37.9302 11.0606 38.4192 10.0204C38.9082 8.98022 39.0645 7.81466 38.8667 6.68235C38.669 5.55004 38.1268 4.50649 37.3141 3.69379C36.5012 2.88092 35.4576 2.33872 34.3253 2.14095C33.1932 1.94317 32.0275 2.09944 30.9873 2.58848C29.9471 3.07751 29.0831 3.8757 28.5132 4.87369C27.9434 5.87184 27.6951 7.02154 27.8026 8.16583L27.7753 8.13697C27.8563 9.09362 27.7275 10.0565 27.398 10.9581C27.0682 11.8599 26.5458 12.6787 25.8669 13.3576C25.188 14.0365 24.3692 14.5591 23.4674 14.8887C22.5658 15.2182 21.6029 15.347 20.6463 15.266L20.6736 15.2948C19.8606 15.213 19.0394 15.3127 18.2698 15.587C17.5001 15.8613 16.8008 16.3033 16.2228 16.8808C15.6449 17.4584 15.2024 18.1572 14.9275 18.9267C14.6526 19.6964 14.5522 20.5173 14.6336 21.3304L14.6062 21.303C14.6867 22.2597 14.5576 23.2222 14.2277 24.1237C13.898 25.0251 13.3754 25.8437 12.6966 26.5225C12.0179 27.2013 11.1993 27.7238 10.2979 28.0535C9.39623 28.3834 8.43368 28.5125 7.47721 28.432L7.50455 28.4594C6.36025 28.3519 5.21056 28.6001 4.2124 29.17C3.21424 29.74 2.41622 30.6038 1.92719 31.644C1.43815 32.6842 1.28189 33.8499 1.47966 34.9821C1.67744 36.1144 2.21963 37.1581 3.03233 37.9708C3.8452 38.7835 4.88875 39.3257 6.02106 39.5235C7.15321 39.7212 8.31893 39.565 9.35911 39.0759C10.3993 38.5869 11.2633 37.7889 11.8332 36.7907C12.403 35.7926 12.6512 34.643 12.5438 33.4986L12.5726 33.5259C12.492 32.5694 12.6209 31.6067 12.9506 30.7051C13.2803 29.8035 13.8028 28.9847 14.4815 28.306C15.1604 27.6271 15.9792 27.1046 16.8808 26.7749C17.7824 26.4452 18.745 26.3162 19.7016 26.3969Z" fill="#0D0E10"/>
<path d="M9.52314 23.349C10.0987 22.77 10.5395 22.071 10.8139 21.3022C11.0881 20.5332 11.1894 19.7131 11.1102 18.9006L11.1391 18.9279C11.0583 17.9711 11.1873 17.008 11.5173 16.1062C11.847 15.2044 12.3698 14.3855 13.049 13.7066C13.7282 13.0277 14.5473 12.5053 15.4493 12.1759C16.3513 11.8463 17.3143 11.7177 18.2711 11.7989L18.2423 11.7715C19.3862 11.8787 20.5354 11.6305 21.5331 11.0606C22.5307 10.4906 23.3284 9.6269 23.8171 8.58707C24.3058 7.54723 24.4621 6.38201 24.2643 5.2502C24.0665 4.11839 23.5243 3.07502 22.712 2.26266C21.8994 1.45012 20.8562 0.908095 19.7244 0.71032C18.5926 0.512545 17.4274 0.668644 16.3875 1.15751C15.3477 1.64621 14.4839 2.44389 13.914 3.44154C13.3441 4.43919 13.0959 5.58838 13.2031 6.73234L13.1757 6.705C13.2564 7.66164 13.1275 8.62419 12.7977 9.52582C12.468 10.4275 11.9455 11.2462 11.2667 11.9251C10.5879 12.6038 9.76917 13.1263 8.86754 13.456C7.96591 13.7857 7.00336 13.9147 6.04672 13.834L6.07406 13.8613C5.13935 13.7775 4.19857 13.931 3.33912 14.3075C2.47951 14.684 1.72874 15.2714 1.15668 16.0153C0.584616 16.7591 0.209485 17.6354 0.0660479 18.5629C-0.0772209 19.4903 0.0159298 20.4389 0.336724 21.3208C0.657686 22.2027 1.19583 22.9892 1.90171 23.6077C2.60759 24.2261 3.45809 24.6565 4.3744 24.8586C5.29072 25.0609 6.24331 25.0285 7.14393 24.7648C8.04455 24.5009 8.86383 24.0139 9.52617 23.349H9.52314Z" fill="#0D0E10"/>
<path d="M56.5695 8.20117H61.0801V30.1517H56.5695V8.20117Z" fill="#0D0E10"/>
<path d="M63.6347 22.6355C63.6283 21.0581 64.0903 19.5143 64.9621 18.1996C65.8338 16.8849 67.0762 15.8585 68.5318 15.2505C69.9873 14.6425 71.5906 14.4802 73.1385 14.7839C74.6864 15.0879 76.1093 15.8444 77.227 16.9574C78.3446 18.0707 79.1069 19.4906 79.4169 21.0373C79.727 22.5839 79.5709 24.1879 78.9688 25.6459C78.3666 27.1037 77.3453 28.3503 76.0341 29.2273C74.7229 30.1044 73.181 30.5725 71.6036 30.5725C70.5565 30.5845 69.5175 30.3876 68.5473 29.9934C67.5772 29.599 66.6953 29.0155 65.9533 28.2763C65.2115 27.5374 64.6242 26.658 64.2261 25.6894C63.8279 24.721 63.6269 23.6826 63.6347 22.6355ZM75.0617 22.6355C75.0428 21.9557 74.824 21.2963 74.4327 20.74C74.0412 20.1838 73.4944 19.7553 72.8606 19.5081C72.2269 19.2609 71.5345 19.206 70.8697 19.3501C70.205 19.4944 69.5975 19.8314 69.1233 20.3189C68.6489 20.8066 68.329 21.4231 68.2032 22.0917C68.0775 22.7601 68.1516 23.4508 68.4162 24.0773C68.681 24.7041 69.1245 25.2387 69.6913 25.6147C70.2581 25.9905 70.9233 26.1909 71.6036 26.1909C72.0693 26.2034 72.5327 26.1192 72.9644 25.9436C73.396 25.7681 73.7867 25.505 74.1115 25.1708C74.4365 24.8369 74.6886 24.4391 74.8522 24.0028C75.0157 23.5664 75.0871 23.1008 75.0617 22.6355Z" fill="#0D0E10"/>
<path d="M97.5497 15.1174V29.3936C97.5497 34.445 93.6101 36.5803 89.6112 36.5803C88.2033 36.6856 86.7936 36.4013 85.5366 35.7584C84.2795 35.1154 83.2239 34.1387 82.4852 32.9353L86.3337 30.7104C86.6442 31.3376 87.1388 31.8552 87.7514 32.1935C88.364 32.532 89.0653 32.6753 89.7616 32.6043C90.2066 32.6658 90.6598 32.6267 91.0876 32.4895C91.5154 32.3525 91.9069 32.121 92.2331 31.812C92.5593 31.5032 92.8119 31.1248 92.9722 30.7053C93.1325 30.2856 93.1963 29.8352 93.159 29.3875V28.0131C92.6308 28.6594 91.9585 29.1727 91.1961 29.5123C90.4335 29.8518 89.6021 30.0077 88.7683 29.9677C86.7846 29.9051 84.9031 29.0732 83.5219 27.6477C82.1406 26.2223 81.3684 24.3154 81.3684 22.3306C81.3684 20.3459 82.1406 18.439 83.5219 17.0136C84.9031 15.5882 86.7846 14.7562 88.7683 14.6936C89.6021 14.6536 90.4335 14.8096 91.1961 15.1491C91.9585 15.4885 92.6308 16.002 93.159 16.6483V15.1143L97.5497 15.1174ZM93.1605 22.3329C93.1909 21.606 93.0029 20.8866 92.621 20.2675C92.239 19.6481 91.6804 19.1574 91.0172 18.8584C90.354 18.5592 89.6164 18.4654 88.8994 18.5891C88.1824 18.7128 87.5189 19.0481 86.9941 19.5521C86.4692 20.056 86.1073 20.7055 85.9547 21.4168C85.8022 22.1283 85.8661 22.8691 86.1382 23.5439C86.4102 24.2187 86.878 24.7967 87.4812 25.2034C88.0845 25.6101 88.7956 25.8269 89.5231 25.8261C89.9971 25.8591 90.4727 25.7927 90.9194 25.6307C91.366 25.4688 91.7737 25.2152 92.1165 24.8861C92.4592 24.5571 92.729 24.1598 92.9089 23.7201C93.0888 23.2803 93.1745 22.8078 93.1605 22.3329Z" fill="#0D0E10"/>
<path d="M100.104 22.6355C100.098 21.0581 100.56 19.5143 101.432 18.1996C102.304 16.8849 103.546 15.8585 105.002 15.2505C106.457 14.6425 108.06 14.4802 109.608 14.7839C111.156 15.0879 112.579 15.8444 113.697 16.9574C114.814 18.0707 115.576 19.4906 115.887 21.0373C116.197 22.5839 116.041 24.1879 115.439 25.6459C114.836 27.1037 113.815 28.3503 112.504 29.2273C111.193 30.1044 109.651 30.5725 108.073 30.5725C107.026 30.5845 105.987 30.3876 105.017 29.9934C104.047 29.599 103.165 29.0155 102.423 28.2763C101.681 27.5374 101.094 26.658 100.696 25.6894C100.298 24.721 100.097 23.6826 100.104 22.6355ZM111.532 22.6355C111.513 21.9557 111.294 21.2963 110.902 20.74C110.511 20.1838 109.964 19.7553 109.33 19.5081C108.697 19.2609 108.004 19.206 107.339 19.3501C106.675 19.4944 106.067 19.8314 105.593 20.3189C105.119 20.8066 104.799 21.4231 104.673 22.0917C104.547 22.7601 104.621 23.4508 104.886 24.0773C105.151 24.7041 105.594 25.2387 106.161 25.6147C106.728 25.9905 107.393 26.1909 108.073 26.1909C108.539 26.2034 109.002 26.1192 109.434 25.9436C109.866 25.7681 110.256 25.505 110.581 25.1708C110.906 24.8369 111.158 24.4391 111.322 24.0028C111.485 23.5664 111.557 23.1008 111.532 22.6355Z" fill="#0D0E10"/>
<path d="M118.145 11.0883C118.145 10.553 118.304 10.0297 118.602 9.58472C118.899 9.13956 119.322 8.79277 119.816 8.58791C120.311 8.38305 120.855 8.32939 121.38 8.43384C121.905 8.5383 122.387 8.79598 122.766 9.17449C123.144 9.55299 123.402 10.0353 123.506 10.5603C123.611 11.0852 123.557 11.6295 123.352 12.1239C123.147 12.6185 122.801 13.0412 122.355 13.3386C121.91 13.6359 121.387 13.7947 120.852 13.7947C120.136 13.7876 119.452 13.5001 118.946 12.9941C118.44 12.4881 118.153 11.8038 118.145 11.0883ZM118.601 15.1175H123.113V30.1531H118.595L118.601 15.1175Z" fill="#0D0E10"/>
<path d="M142.59 22.6349C142.643 23.6286 142.498 24.6227 142.164 25.5603C141.831 26.4979 141.315 27.3602 140.646 28.0978C139.978 28.8354 139.172 29.4336 138.272 29.8584C137.373 30.283 136.397 30.5254 135.403 30.5719C134.567 30.6174 133.732 30.4765 132.957 30.1593C132.182 29.8418 131.488 29.3562 130.924 28.7372V36.1654H126.414V15.1171H130.924V16.5295C131.488 15.911 132.183 15.4257 132.957 15.1086C133.732 14.7915 134.567 14.6508 135.403 14.6964C136.397 14.7426 137.373 14.9851 138.272 15.4097C139.173 15.8342 139.98 16.4328 140.648 17.1706C141.316 17.9084 141.831 18.771 142.165 19.7087C142.498 20.6467 142.643 21.6411 142.59 22.6349ZM138.08 22.6349C138.061 21.9312 137.837 21.2484 137.433 20.6718C137.028 20.0952 136.464 19.6505 135.809 19.3935C135.154 19.1363 134.437 19.0783 133.749 19.2265C133.061 19.3746 132.432 19.7224 131.94 20.2263C131.449 20.7304 131.117 21.3681 130.986 22.0596C130.855 22.7513 130.932 23.4661 131.205 24.1148C131.479 24.7633 131.937 25.3168 132.524 25.706C133.11 26.0953 133.799 26.3028 134.502 26.3027C134.986 26.3243 135.468 26.2433 135.918 26.0654C136.368 25.8874 136.775 25.6163 137.113 25.2701C137.45 24.9236 137.71 24.5098 137.877 24.0557C138.044 23.6016 138.114 23.1175 138.08 22.6349Z" fill="#0D0E10"/>
<path d="M156.509 25.6408C156.509 29.099 153.503 30.5722 150.257 30.5722C148.944 30.691 147.628 30.4135 146.475 29.7757C145.322 29.1376 144.388 28.1687 143.792 26.994L147.698 24.769C147.857 25.3121 148.196 25.7844 148.66 26.1072C149.126 26.43 149.686 26.5837 150.25 26.5429C151.332 26.5429 151.873 26.2118 151.873 25.6119C151.873 23.9565 144.477 24.8298 144.477 19.628C144.477 16.3491 147.243 14.6967 150.37 14.6967C151.546 14.6594 152.71 14.9381 153.741 15.504C154.772 16.0698 155.633 16.9017 156.232 17.9134L152.385 19.988C152.216 19.5941 151.934 19.2587 151.576 19.0234C151.219 18.7882 150.798 18.6636 150.37 18.6652C149.588 18.6652 149.108 18.9689 149.108 19.5065C149.113 21.2212 156.509 20.0776 156.509 25.6408Z" fill="#0D0E10"/>
<path d="M172.986 15.1172V30.1528H168.475V28.7389C167.955 29.3629 167.294 29.8545 166.548 30.1734C165.8 30.4923 164.987 30.6294 164.177 30.5735C161.139 30.5735 158.558 28.4093 158.558 24.3466V15.1172H163.068V23.686C163.031 24.0441 163.072 24.4062 163.188 24.7469C163.304 25.0876 163.493 25.399 163.743 25.6592C163.991 25.9194 164.293 26.1222 164.629 26.2535C164.965 26.385 165.324 26.4417 165.684 26.4197C167.338 26.4197 168.48 25.4584 168.48 23.323V15.1217L172.986 15.1172Z" fill="#0D0E10"/>
<path d="M198.85 20.9205V30.1515H194.339V21.3108C194.339 19.8073 193.619 18.8459 192.176 18.8459C190.672 18.8459 189.829 19.8984 189.829 21.6723V30.1515H185.32V21.3108C185.32 19.8073 184.599 18.8459 183.155 18.8459C181.651 18.8459 180.809 19.8984 180.809 21.6723V30.1515H176.298V15.1159H180.809V16.4979C181.276 15.8847 181.891 15.3985 182.594 15.0836C183.298 14.7686 184.069 14.6351 184.839 14.6952C185.61 14.6574 186.379 14.8202 187.07 15.1678C187.76 15.5155 188.347 16.0359 188.777 16.6787C189.277 16.0064 189.938 15.4718 190.701 15.1248C191.464 14.7779 192.302 14.63 193.136 14.6952C196.589 14.6967 198.85 17.1616 198.85 20.9205Z" fill="#0D0E10"/>
<path d="M202.665 15.0247C204.515 15.0247 206.013 13.5261 206.013 11.6774C206.013 9.82875 204.515 8.33008 202.665 8.33008C200.816 8.33008 199.317 9.82875 199.317 11.6774C199.317 13.5261 200.816 15.0247 202.665 15.0247Z" fill="#0D0E10"/>
</g>
</svg>
