<svg width="270" height="152" viewBox="0 0 270 152" fill="none" xmlns="http://www.w3.org/2000/svg">
<g opacity="0.6">
<path d="M134.581 84.427H126.835V63.7196H134.581V84.427ZM127.592 83.6706H133.825V64.476H127.592V83.6706ZM145.359 84.427H137.768V63.7196H153.626C155.898 63.5356 158.16 64.1733 160.001 65.5168C160.793 66.2419 161.408 67.1403 161.797 68.1419C162.184 69.1436 162.335 70.2213 162.239 71.2912C162.352 73.1398 161.764 74.9631 160.591 76.397C159.204 77.9885 156.895 78.8084 153.731 78.8371C152.934 78.8583 146.959 78.8371 145.363 78.8371L145.359 84.427ZM138.521 83.6706H144.603V78.0732H144.982C145.059 78.0732 152.815 78.0974 153.712 78.0732C156.661 78.0474 158.78 77.3168 160.02 75.8902C161.063 74.5928 161.581 72.951 161.472 71.2897C161.565 70.3311 161.436 69.364 161.095 68.4633C160.754 67.5627 160.209 66.7527 159.505 66.0962C157.798 64.871 155.709 64.2959 153.616 64.4745H138.525L138.521 83.6706ZM152.019 74.1852H144.551V68.5485H152.069C152.602 68.4748 153.146 68.537 153.648 68.7293C154.151 68.9216 154.597 69.2376 154.944 69.6483C155.259 70.1731 155.408 70.7813 155.371 71.3926C155.399 71.96 155.276 72.5249 155.015 73.0295C154.656 73.4619 154.192 73.7948 153.668 73.9961C153.143 74.1976 152.575 74.2605 152.019 74.1792V74.1852ZM145.307 73.4288H152.019C153.26 73.4288 154.029 73.1701 154.369 72.6376C154.556 72.2506 154.641 71.8219 154.615 71.3926C154.649 70.9418 154.551 70.4911 154.334 70.0946L154.326 70.081C153.965 69.5515 153.249 69.3049 152.069 69.3049H145.307V73.4288ZM176.043 84.7326C169.25 84.7326 165.196 83.0458 163.652 79.5769C163.399 78.9068 163.227 78.209 163.141 77.4983L163.074 77.0626H171.155L171.209 77.3803C171.27 77.7029 171.408 78.0064 171.608 78.2668C171.927 78.6526 172.991 79.3001 176.526 79.3001C180.774 79.3001 180.774 78.5542 180.774 78.1533C180.774 77.4771 180.282 77.2457 176.818 76.8765L176.16 76.8145C174.856 76.692 173.207 76.5361 172.454 76.4711C166.1 75.8962 163.263 73.922 163.263 70.0719C163.263 66.0282 168.09 63.4155 175.562 63.4155C181.657 63.4155 185.585 65.0221 187.232 68.1945C187.623 68.9324 187.886 69.7315 188.008 70.5575L188.061 70.9826H179.97L179.938 70.6407C179.905 70.3735 179.791 70.1229 179.611 69.9236C179.308 69.5182 178.351 68.848 175.384 68.848C171.739 68.848 171.237 69.314 171.237 69.8162C171.237 70.4864 172.389 70.7239 176.078 71.1188C177.616 71.2443 180.09 71.4985 180.937 71.6014C186.263 72.1793 188.641 74.1051 188.641 77.8478C188.642 80.9868 186.455 84.7326 176.043 84.7326ZM163.958 77.819C164.033 78.3179 164.164 78.8069 164.346 79.2774C165.753 82.4376 169.581 83.9762 176.043 83.9762C181.447 83.9762 187.89 82.9172 187.89 77.8478C187.89 74.5302 185.787 72.8872 180.857 72.3532C180.01 72.2504 177.552 71.9977 176.016 71.8706C172.083 71.444 170.484 71.2171 170.484 69.8162C170.484 68.367 172.207 68.0916 175.386 68.0916C177.9 68.0916 179.522 68.5455 180.211 69.4607C180.398 69.6861 180.54 69.9462 180.629 70.2262H187.185C187.054 69.6411 186.844 69.076 186.565 68.5455C185.052 65.6424 181.356 64.1719 175.566 64.1719C168.553 64.1719 164.023 66.4881 164.023 70.0719C164.023 73.4909 166.565 75.1792 172.522 75.7177C173.279 75.7828 174.927 75.9386 176.233 76.0626L176.897 76.1247C180.114 76.4635 181.533 76.6753 181.533 78.1533C181.533 79.7448 179.698 80.0565 176.529 80.0565C173.597 80.0565 171.745 79.6162 171.029 78.7494C170.809 78.4729 170.643 78.1573 170.539 77.819H163.958ZM203.013 84.7069C195.116 84.7069 190.759 81.5133 190.759 75.7132V63.7196H198.401V75.7132C198.401 77.7025 200.181 78.8432 203.285 78.8432C206.25 78.8432 208.091 77.6526 208.091 75.7389V63.7196H215.655V76.3486C215.662 81.6601 211.049 84.7069 203.008 84.7069H203.013ZM191.515 64.476V75.7132C191.515 82.8809 198.713 83.9504 203.013 83.9504C207.457 83.9504 214.91 82.9626 214.91 76.3486V64.476H208.859V75.7389C208.859 78.0838 206.675 79.5996 203.297 79.5996C199.766 79.5996 197.657 78.1473 197.657 75.7132V64.476H191.515ZM247.708 84.427H240.495V75.0778L236.404 84.427H230.113L226.064 75.096V84.427H218.825V63.7196H228.348L233.294 75.1368L238.48 63.7196H247.717L247.708 84.427ZM241.252 83.6706H246.952V64.476H238.96L233.27 77.0006L227.845 64.476H219.576V83.6706H225.302V71.4561L230.597 83.6751H235.892L241.243 71.4743L241.252 83.6706ZM29.2308 64.0978H22.3415V84.0488H41.3787V78.7373H29.2308V64.0978ZM55.2845 63.644C46.4905 63.644 41.8658 67.8118 41.8658 73.9311C41.8658 80.8446 46.7204 84.3513 55.2845 84.3513C64.7123 84.3513 68.6774 80.2849 68.6774 73.9311C68.6774 67.4789 64.204 63.6409 55.2845 63.6409V63.644ZM55.2587 68.8284C55.8574 68.8255 56.4556 68.8604 57.0499 68.9328L49.3482 76.6345C48.9836 75.8101 48.8059 74.9153 48.8278 74.0143C48.8278 70.8843 50.4041 68.8253 55.2587 68.8253V68.8284ZM55.2845 79.2486C54.7076 79.2511 54.1312 79.2188 53.5582 79.1518L61.2737 71.4365C61.6245 72.2471 61.7924 73.1252 61.7654 74.0082C61.7654 77.0535 60.3131 79.2456 55.2845 79.2456V79.2486ZM82.3275 76.5256H89.4181C89.3137 77.0176 89.0962 77.4785 88.7826 77.872C87.3127 79.0695 85.4366 79.6522 83.5468 79.4982C82.5956 79.5999 81.6336 79.496 80.726 79.1936C79.8186 78.891 78.9866 78.397 78.2868 77.7449C77.5698 76.6933 77.2292 75.4304 77.3201 74.161C77.2041 72.8308 77.5744 71.5037 78.3623 70.4259C79.3532 69.3064 81.031 68.8238 83.4969 68.8238C85.0658 68.6938 86.6329 69.0968 87.9446 69.9675C88.3579 70.2959 88.667 70.7373 88.834 71.2383H95.4102C95.3624 70.413 95.164 69.6034 94.8247 68.8496C93.2499 65.6469 89.589 63.7408 83.3638 63.7408C77.9494 63.7408 74.3156 65.3928 72.3081 67.8844C70.9822 69.6836 70.3017 71.8773 70.3763 74.1111C70.2905 76.3953 70.9535 78.6451 72.2643 80.5179C74.2476 83.0897 77.78 84.3544 82.0249 84.3544C84.8471 84.5512 87.6499 83.7606 89.9536 82.1184L90.1321 84.0488H95.5949V72.2307H82.3275V76.5256ZM111.1 63.6394C102.307 63.6394 97.681 67.8072 97.681 73.9266C97.681 80.8401 102.534 84.3468 111.1 84.3468C120.529 84.3468 124.494 80.2804 124.494 73.9266C124.494 67.4789 120.021 63.6409 111.1 63.6409V63.6394ZM111.075 68.8238C111.658 68.8221 112.241 68.8554 112.82 68.9237L105.148 76.5997C104.795 75.7844 104.623 74.9023 104.644 74.0143C104.638 70.8843 106.221 68.8253 111.075 68.8253V68.8238ZM111.1 79.2441C110.508 79.2465 109.916 79.2122 109.328 79.1412L117.07 71.3986C117.433 72.2201 117.607 73.1131 117.579 74.0113C117.582 77.0535 116.136 79.2456 111.1 79.2456V79.2441Z" fill="#0D0E10"/>
</g>
</svg>
