<svg width="270" height="153" viewBox="0 0 270 153" fill="none" xmlns="http://www.w3.org/2000/svg">
<g opacity="0.6">
<path d="M81.5526 70.3843C82.0972 70.3843 82.2788 70.581 82.2788 71.1105V83.0929H88.4364C88.9659 83.0929 89.1626 83.2896 89.1626 83.8191V84.8782C89.1626 85.4077 88.9659 85.6044 88.4364 85.6044H80.3271C79.7976 85.6044 79.5858 85.4077 79.5858 84.8782V71.1105C79.5858 70.581 79.7976 70.3843 80.3271 70.3843H81.5526Z" fill="#0D0E10"/>
<path d="M94.5332 75.6652C94.5332 72.1704 96.742 70.0674 100.585 70.0674C104.428 70.0674 106.637 72.1704 106.637 75.6652V80.3251C106.637 83.8199 104.413 85.9229 100.585 85.9229C96.7572 85.9229 94.5332 83.8199 94.5332 80.3251V75.6652ZM104.095 75.6652C104.095 73.6984 102.869 72.6394 100.661 72.6394C98.4517 72.6394 97.2413 73.7135 97.2413 75.6652V80.3553C97.2413 82.3373 98.4517 83.3812 100.661 83.3812C102.869 83.3812 104.095 82.2919 104.095 80.3553V75.6652Z" fill="#0D0E10"/>
<path d="M124.656 77.2679C125.246 77.2679 125.382 77.4646 125.382 77.9941V80.8687C125.399 81.5458 125.263 82.2179 124.986 82.8356C124.707 83.4535 124.295 84.0014 123.779 84.4392C122.495 85.4612 120.877 85.9682 119.24 85.8614C115.321 85.8614 113.188 83.7584 113.188 80.2635V75.5734C113.188 72.124 115.397 70.0059 119.24 70.0059C122.266 70.0059 124.233 71.2011 125.065 73.5915C125.111 73.6812 125.136 73.7807 125.137 73.8819C125.139 73.983 125.117 74.0831 125.073 74.1741C125.029 74.2652 124.963 74.3447 124.883 74.4064C124.803 74.4681 124.71 74.5102 124.611 74.5295L123.431 74.938C122.916 75.1196 122.705 75.0137 122.523 74.4841C122.272 73.8379 121.813 73.2936 121.218 72.9375C120.624 72.5812 119.928 72.4334 119.24 72.5173C117.016 72.5173 115.805 73.5915 115.805 75.5432V80.3543C115.805 82.3362 117.031 83.3802 119.24 83.3802C121.449 83.3802 122.81 82.3665 122.81 80.8838V79.7643H119.527C118.983 79.7643 118.786 79.5525 118.786 79.0229V77.9941C118.786 77.4646 118.983 77.2679 119.527 77.2679H124.656Z" fill="#0D0E10"/>
<path d="M131.63 75.6652C131.63 72.1704 133.839 70.0674 137.681 70.0674C141.524 70.0674 143.733 72.1704 143.733 75.6652V80.3251C143.733 83.8199 141.509 85.9229 137.681 85.9229C133.854 85.9229 131.63 83.8199 131.63 80.3251V75.6652ZM141.176 75.6652C141.176 73.6984 139.951 72.6394 137.757 72.6394C135.563 72.6394 134.323 73.7135 134.323 75.6652V80.3553C134.323 82.3373 135.548 83.3812 137.757 83.3812C139.966 83.3812 141.176 82.2919 141.176 80.3553V75.6652Z" fill="#0D0E10"/>
<path d="M150.86 70.823C150.86 70.4902 150.966 70.3843 151.299 70.3843H151.995C152.328 70.3843 152.403 70.4902 152.403 70.823V85.1656C152.403 85.4985 152.403 85.6044 151.995 85.6044H151.299C150.966 85.6044 150.86 85.4985 150.86 85.1656V70.823Z" fill="#0D0E10"/>
<path d="M166.185 70.3843C167.445 70.3843 168.653 70.8847 169.545 71.7756C170.435 72.6666 170.936 73.8748 170.936 75.1349C170.936 76.3948 170.435 77.603 169.545 78.494C168.653 79.3849 167.445 79.8855 166.185 79.8855H161.646V85.1656C161.646 85.4985 161.571 85.6044 161.253 85.6044H160.542C160.224 85.6044 160.103 85.4985 160.103 85.1656V70.823C160.103 70.4902 160.224 70.3843 160.542 70.3843H166.185ZM166.049 78.3877C166.482 78.3877 166.911 78.3023 167.312 78.1365C167.712 77.9708 168.075 77.7279 168.381 77.4216C168.687 77.1153 168.93 76.7517 169.097 76.3516C169.262 75.9514 169.347 75.5225 169.347 75.0895C169.347 74.6563 169.262 74.2275 169.097 73.8272C168.93 73.4271 168.687 73.0636 168.381 72.7572C168.075 72.4511 167.712 72.2081 167.312 72.0423C166.911 71.8766 166.482 71.7913 166.049 71.7913H161.51V78.3877H166.049Z" fill="#0D0E10"/>
<path d="M182.752 70.0823C183.92 69.9533 185.099 70.2047 186.113 70.7988C187.126 71.3931 187.922 72.2984 188.38 73.3805C188.501 73.6225 188.38 73.8192 188.138 73.9403L187.472 74.2428C187.2 74.3488 187.094 74.3336 186.927 74.0462C186.585 73.243 185.996 72.5698 185.246 72.1238C184.495 71.6777 183.621 71.482 182.752 71.565C180.195 71.565 178.803 72.5786 178.803 74.3941C178.789 74.949 178.975 75.4904 179.328 75.9187C179.682 76.3469 180.177 76.6329 180.724 76.7241C181.539 76.9894 182.383 77.1521 183.236 77.2082C184.27 77.2634 185.29 77.4724 186.262 77.8285C187.008 78.0643 187.649 78.5495 188.078 79.2024C188.509 79.8554 188.701 80.6364 188.622 81.4141C188.622 84.2433 186.564 85.9529 182.782 85.9529C181.541 86.0948 180.29 85.8073 179.236 85.1384C178.181 84.4694 177.388 83.4594 176.987 82.2765C176.961 82.2226 176.947 82.1634 176.945 82.1032C176.944 82.0431 176.956 81.9834 176.982 81.9285C177.006 81.8736 177.042 81.8247 177.087 81.7855C177.133 81.7463 177.188 81.7177 177.245 81.7016L177.91 81.4595C177.963 81.4381 178.02 81.4279 178.077 81.4293C178.133 81.4308 178.188 81.4442 178.24 81.4683C178.291 81.4925 178.336 81.527 178.373 81.5699C178.411 81.6126 178.439 81.6626 178.455 81.7167C178.794 82.5714 179.395 83.2961 180.174 83.7857C180.951 84.2754 181.865 84.5046 182.782 84.44C185.641 84.44 187.048 83.4415 187.048 81.4141C187.075 80.8812 186.912 80.3561 186.587 79.9323C186.264 79.5084 185.8 79.2133 185.278 79.0994C184.496 78.8658 183.688 78.7237 182.873 78.6757L181.239 78.4639C180.728 78.3553 180.223 78.2189 179.726 78.0554C179.236 77.9073 178.778 77.6658 178.379 77.3444C177.979 76.9809 177.662 76.5337 177.453 76.0343C177.243 75.5349 177.147 74.9956 177.169 74.4547C177.275 71.807 179.257 70.0823 182.752 70.0823Z" fill="#0D0E10"/>
<path d="M196.776 80.43C196.84 81.5 197.311 82.5051 198.092 83.2399C198.871 83.9747 199.904 84.3839 200.975 84.3839C202.047 84.3839 203.078 83.9747 203.858 83.2399C204.639 82.5051 205.109 81.5 205.173 80.43V70.823C205.173 70.4902 205.279 70.3843 205.612 70.3843H206.308C206.641 70.3843 206.747 70.4902 206.747 70.823V80.415C206.747 83.8494 204.719 85.922 200.982 85.922C197.245 85.922 195.218 83.8494 195.218 80.415V70.823C195.218 70.4902 195.324 70.3843 195.642 70.3843H196.353C196.671 70.3843 196.776 70.4902 196.776 70.823V80.43Z" fill="#0D0E10"/>
<path d="M227.625 70.3849C227.958 70.3849 228.064 70.4908 228.064 70.8237V85.1662C228.064 85.4991 227.958 85.605 227.625 85.605H226.99C226.672 85.605 226.566 85.4991 226.566 85.1662V76.4366C226.566 75.1665 226.652 73.8978 226.823 72.6392H226.732C226.26 73.7902 225.71 74.9073 225.083 75.9828L221.831 81.7168C221.791 81.8163 221.722 81.9013 221.633 81.9608C221.544 82.0202 221.438 82.0512 221.331 82.0496H220.908C220.799 82.0502 220.692 82.019 220.602 81.9599C220.51 81.9008 220.438 81.8163 220.393 81.7168L217.095 75.9222C216.51 74.8621 216.005 73.7597 215.582 72.624H215.491C215.647 73.8942 215.728 75.1723 215.733 76.4518V85.1662C215.733 85.4991 215.628 85.605 215.295 85.605H214.705C214.372 85.605 214.266 85.4991 214.266 85.1662V70.8237C214.266 70.4908 214.372 70.3849 214.705 70.3849H215.249C215.374 70.3734 215.5 70.4006 215.608 70.4629C215.716 70.5251 215.802 70.6195 215.855 70.7329L221.15 80.1433L226.415 70.8237C226.581 70.5059 226.672 70.4606 227.005 70.4606L227.625 70.3849Z" fill="#0D0E10"/>
<path d="M54.6373 82.2461V93.1846C54.6373 93.6039 54.4708 94.006 54.1742 94.3025C53.8778 94.5991 53.4756 94.7656 53.0563 94.7656C52.637 94.7656 52.2349 94.5991 51.9384 94.3025C51.6419 94.006 51.4753 93.6039 51.4753 93.1846V82.2612C51.9155 82.5827 52.4433 82.7621 52.9882 82.7756C53.5823 82.7926 54.1642 82.6057 54.6373 82.2461ZM68.1024 79.0841C67.7012 79.0841 67.3164 79.2435 67.0326 79.5271C66.7489 79.8109 66.5895 80.1957 66.5895 80.597V82.5033C66.5895 82.9226 66.7561 83.3247 67.0525 83.6212C67.3491 83.9178 67.7512 84.0843 68.1705 84.0843C68.5898 84.0843 68.992 83.9178 69.2884 83.6212C69.5849 83.3247 69.7515 82.9226 69.7515 82.5033V80.6726C69.7634 80.4557 69.7282 80.2388 69.6486 80.0366C69.5691 79.8344 69.4469 79.6518 69.2904 79.5011C69.134 79.3503 68.9468 79.235 68.7419 79.1631C68.5368 79.0912 68.3187 79.0642 68.1024 79.0841ZM48.0409 86.3915C47.4966 86.3752 46.9695 86.196 46.528 85.8771V96.8459C46.528 97.2672 46.6953 97.6712 46.9933 97.9692C47.2912 98.2671 47.6953 98.4345 48.1166 98.4345C48.538 98.4345 48.9419 98.2671 49.2399 97.9692C49.5378 97.6712 49.7051 97.2672 49.7051 96.8459V85.9528C49.2111 86.2721 48.6282 86.4257 48.0409 86.3915ZM63.1702 75.801C62.9653 75.7908 62.7605 75.8223 62.5681 75.8936C62.3757 75.9651 62.1999 76.075 62.0512 76.2165C61.9026 76.358 61.7844 76.5283 61.7036 76.7169C61.623 76.9056 61.5814 77.1088 61.5817 77.3139V85.741C61.5817 86.1623 61.7491 86.5663 62.0469 86.8643C62.3449 87.1622 62.7489 87.3295 63.1702 87.3295C63.5916 87.3295 63.9957 87.1622 64.2935 86.8643C64.5915 86.5663 64.7588 86.1623 64.7588 85.741V77.4198C64.7709 77.2015 64.7355 76.9831 64.6551 76.7798C64.5746 76.5764 64.4511 76.3929 64.2928 76.242C64.1347 76.091 63.9457 75.976 63.7387 75.9052C63.5319 75.8343 63.3122 75.809 63.0946 75.8313L63.1702 75.801ZM58.1473 79.0387C57.5775 79.0347 57.0227 78.8552 56.5587 78.5243V89.5233C56.5587 89.9446 56.7261 90.3487 57.024 90.6466C57.3219 90.9445 57.726 91.1119 58.1473 91.1119C58.5687 91.1119 58.9727 90.9445 59.2706 90.6466C59.5685 90.3487 59.7359 89.9446 59.7359 89.5233V78.5394C59.2559 78.8969 58.6701 79.0834 58.0717 79.0689L58.1473 79.0387ZM44.6066 87.4657V56.7381C44.6026 56.3635 44.4511 56.0057 44.1848 55.7422C43.9185 55.4787 43.559 55.3311 43.1844 55.3311H42.8516C42.4771 55.3311 42.1176 55.4787 41.8513 55.7422C41.585 56.0057 41.4335 56.3635 41.4294 56.7381V87.4657C41.4294 87.8429 41.5793 88.2046 41.8459 88.4713C42.1127 88.738 42.4744 88.8879 42.8516 88.8879H43.1844C43.5616 88.8879 43.9234 88.738 44.19 88.4713C44.4568 88.2046 44.6066 87.8429 44.6066 87.4657ZM48.2073 85.2266H47.8745C47.4973 85.2266 47.1356 85.0767 46.8689 84.81C46.6022 84.5433 46.4523 84.1816 46.4523 83.8044V60.3994C46.4564 60.0247 46.6079 59.667 46.8742 59.4035C47.1405 59.14 47.5 58.9923 47.8745 58.9923H48.2073C48.582 58.9923 48.9415 59.14 49.2077 59.4035C49.474 59.667 49.6255 60.0247 49.6295 60.3994V83.8347C49.6295 84.2119 49.4797 84.5736 49.213 84.8403C48.9462 85.1069 48.5845 85.2568 48.2073 85.2568V85.2266ZM53.2151 81.6258H52.8672C52.4941 81.6258 52.1362 81.4775 51.8722 81.2137C51.6084 80.9499 51.4601 80.5919 51.4601 80.2188V64.0304C51.4582 63.8443 51.4931 63.6597 51.5629 63.4873C51.6327 63.3148 51.7361 63.1579 51.8669 63.0257C51.9978 62.8934 52.1535 62.7884 52.3252 62.7167C52.497 62.6451 52.6812 62.6083 52.8672 62.6083H53.2151C53.5898 62.6122 53.9476 62.7639 54.211 63.0301C54.4745 63.2964 54.6223 63.6558 54.6222 64.0304V80.2188C54.6222 80.5919 54.474 80.9499 54.2101 81.2137C53.9462 81.4775 53.5884 81.6258 53.2151 81.6258ZM58.2229 77.9191H57.9052C57.5307 77.9191 57.1712 77.7713 56.905 77.5079C56.6387 77.2445 56.4872 76.8866 56.4831 76.5121V67.7976C56.4707 67.6034 56.4983 67.4085 56.5642 67.2255C56.6301 67.0423 56.7328 66.8746 56.8662 66.7327C56.9995 66.591 57.1605 66.478 57.3393 66.4009C57.5179 66.3238 57.7106 66.2842 57.9052 66.2847H58.2381C58.6153 66.2847 58.9771 66.4345 59.2437 66.7012C59.5105 66.9679 59.6602 67.3296 59.6602 67.7068V76.4818C59.6623 76.6699 59.6269 76.8565 59.5564 77.0307C59.4858 77.205 59.3814 77.3635 59.2491 77.4972C59.1169 77.6308 58.9594 77.737 58.7859 77.8094C58.6124 77.8819 58.4261 77.9191 58.2381 77.9191H58.2229ZM63.2459 74.6663H62.913C62.5359 74.6663 62.1741 74.5164 61.9075 74.2498C61.6408 73.983 61.4909 73.6213 61.4909 73.2442V70.9899C61.495 70.6154 61.6465 70.2575 61.9128 69.994C62.179 69.7306 62.5385 69.5829 62.913 69.5829H63.2459C63.6205 69.5829 63.98 69.7306 64.2463 69.994C64.5126 70.2575 64.6641 70.6154 64.668 70.9899V73.2442C64.6682 73.6187 64.5203 73.9782 64.2569 74.2444C63.9935 74.5107 63.6356 74.6624 63.261 74.6663H63.2459Z" fill="#0D0E10"/>
</g>
</svg>
