<svg width="226" height="22" viewBox="0 0 226 22" fill="none" xmlns="http://www.w3.org/2000/svg">
<path d="M112.581 21.427H104.835V0.719606H112.581V21.427ZM105.592 20.6706H111.825V1.47601H105.592V20.6706ZM123.359 21.427H115.768V0.719606H131.626C133.898 0.535625 136.16 1.17333 138.001 2.51683C138.793 3.24193 139.408 4.14031 139.797 5.1419C140.184 6.14362 140.335 7.22133 140.239 8.29123C140.352 10.1398 139.764 11.9631 138.591 13.397C137.204 14.9885 134.895 15.8084 131.731 15.8371C130.934 15.8583 124.959 15.8371 123.363 15.8371L123.359 21.427ZM116.521 20.6706H122.603V15.0732H122.982C123.059 15.0732 130.815 15.0974 131.712 15.0732C134.661 15.0474 136.78 14.3168 138.02 12.8902C139.063 11.5928 139.581 9.95102 139.472 8.28972C139.565 7.33106 139.436 6.36402 139.095 5.46332C138.754 4.56273 138.209 3.75268 137.505 3.09623C135.798 1.87097 133.709 1.29587 131.616 1.4745H116.525L116.521 20.6706ZM130.019 11.1852H122.551V5.5485H130.069C130.602 5.47484 131.146 5.53698 131.648 5.72934C132.151 5.92159 132.597 6.23765 132.944 6.64832C133.259 7.17315 133.408 7.7813 133.371 8.39259C133.399 8.96001 133.276 9.52487 133.015 10.0295C132.656 10.4619 132.192 10.7948 131.668 10.9961C131.143 11.1976 130.575 11.2605 130.019 11.1792V11.1852ZM123.307 10.4288H130.019C131.26 10.4288 132.029 10.1701 132.369 9.63763C132.556 9.25059 132.641 8.82188 132.615 8.39259C132.649 7.94177 132.551 7.49107 132.334 7.0946L132.326 7.08098C131.965 6.5515 131.249 6.30491 130.069 6.30491H123.307V10.4288ZM154.043 21.7326C147.25 21.7326 143.196 20.0458 141.652 16.5769C141.399 15.9068 141.227 15.209 141.141 14.4983L141.074 14.0626H149.155L149.209 14.3803C149.27 14.7029 149.408 15.0064 149.608 15.2668C149.927 15.6526 150.991 16.3001 154.526 16.3001C158.774 16.3001 158.774 15.5542 158.774 15.1533C158.774 14.4771 158.282 14.2457 154.818 13.8765L154.16 13.8145C152.856 13.692 151.207 13.5361 150.454 13.4711C144.1 12.8962 141.263 10.922 141.263 7.0719C141.263 3.02816 146.09 0.415527 153.562 0.415527C159.657 0.415527 163.585 2.02214 165.232 5.1945C165.623 5.93241 165.886 6.73152 166.008 7.55752L166.061 7.98262H157.97L157.938 7.64072C157.905 7.37354 157.791 7.12287 157.611 6.92365C157.308 6.51821 156.351 5.84804 153.384 5.84804C149.739 5.84804 149.237 6.31398 149.237 6.81624C149.237 7.48641 150.389 7.72393 154.078 8.11877C155.616 8.24433 158.09 8.49849 158.937 8.60136C164.263 9.17925 166.641 11.1051 166.641 14.8478C166.642 17.9868 164.455 21.7326 154.043 21.7326ZM141.958 14.819C142.033 15.3179 142.164 15.8069 142.346 16.2774C143.753 19.4376 147.581 20.9762 154.043 20.9762C159.447 20.9762 165.89 19.9172 165.89 14.8478C165.89 11.5302 163.787 9.88725 158.857 9.35322C158.01 9.25035 155.552 8.99771 154.016 8.87064C150.083 8.44403 148.484 8.2171 148.484 6.81624C148.484 5.36696 150.207 5.09163 153.386 5.09163C155.9 5.09163 157.522 5.54548 158.211 6.46073C158.398 6.68614 158.54 6.94622 158.629 7.22621H165.185C165.054 6.6411 164.844 6.07601 164.565 5.54548C163.052 2.64239 159.356 1.17194 153.566 1.17194C146.553 1.17194 142.023 3.48805 142.023 7.0719C142.023 10.4909 144.565 12.1792 150.522 12.7177C151.279 12.7828 152.927 12.9386 154.233 13.0626L154.897 13.1247C158.114 13.4635 159.533 13.6753 159.533 15.1533C159.533 16.7448 157.698 17.0565 154.529 17.0565C151.597 17.0565 149.745 16.6162 149.029 15.7494C148.809 15.4729 148.643 15.1573 148.539 14.819H141.958ZM181.013 21.7069C173.116 21.7069 168.759 18.5133 168.759 12.7132V0.719606H176.401V12.7132C176.401 14.7025 178.181 15.8432 181.285 15.8432C184.25 15.8432 186.091 14.6526 186.091 12.7389V0.719606H193.655V13.3486C193.662 18.6601 189.049 21.7069 181.008 21.7069H181.013ZM169.515 1.47601V12.7132C169.515 19.8809 176.713 20.9504 181.013 20.9504C185.457 20.9504 192.91 19.9626 192.91 13.3486V1.47601H186.859V12.7389C186.859 15.0838 184.675 16.5996 181.297 16.5996C177.766 16.5996 175.657 15.1473 175.657 12.7132V1.47601H169.515ZM225.708 21.427H218.495V12.0778L214.404 21.427H208.113L204.064 12.096V21.427H196.825V0.719606H206.348L211.294 12.1368L216.48 0.719606H225.717L225.708 21.427ZM219.252 20.6706H224.952V1.47601H216.96L211.27 14.0006L205.845 1.47601H197.576V20.6706H203.302V8.45613L208.597 20.6751H213.892L219.243 8.47428L219.252 20.6706ZM7.23081 1.09781H0.341461V21.0488H19.3787V15.7373H7.23081V1.09781ZM33.2845 0.643963C24.4905 0.643963 19.8658 4.81176 19.8658 10.9311C19.8658 17.8446 24.7204 21.3513 33.2845 21.3513C42.7123 21.3513 46.6774 17.2849 46.6774 10.9311C46.6774 4.47894 42.204 0.64094 33.2845 0.64094V0.643963ZM33.2587 5.82837C33.8574 5.82546 34.4556 5.86037 35.0499 5.93275L27.3482 13.6345C26.9836 12.8101 26.8059 11.9153 26.8278 11.0143C26.8278 7.88429 28.4041 5.82534 33.2587 5.82534V5.82837ZM33.2845 16.2486C32.7076 16.2511 32.1312 16.2188 31.5582 16.1518L39.2737 8.43646C39.6245 9.2471 39.7924 10.1252 39.7654 11.0082C39.7654 14.0535 38.3131 16.2456 33.2845 16.2456V16.2486ZM60.3275 13.5256H67.4181C67.3137 14.0176 67.0962 14.4785 66.7826 14.872C65.3127 16.0695 63.4366 16.6522 61.5468 16.4982C60.5956 16.5999 59.6336 16.496 58.726 16.1936C57.8186 15.891 56.9866 15.397 56.2868 14.7449C55.5698 13.6933 55.2292 12.4304 55.3201 11.161C55.2041 9.83081 55.5744 8.50372 56.3623 7.4259C57.3532 6.30642 59.031 5.82384 61.4969 5.82384C63.0658 5.69385 64.6329 6.09684 65.9446 6.96752C66.3579 7.29592 66.667 7.73731 66.834 8.23828H73.4102C73.3624 7.41298 73.164 6.6034 72.8247 5.84955C71.2499 2.64693 67.589 0.740785 61.3638 0.740785C55.9494 0.740785 52.3156 2.39278 50.3081 4.88438C48.9822 6.68358 48.3017 8.87727 48.3763 11.1111C48.2905 13.3953 48.9535 15.6451 50.2643 17.5179C52.2476 20.0897 55.78 21.3544 60.0249 21.3544C62.8471 21.5512 65.6499 20.7606 67.9536 19.1184L68.1321 21.0488H73.5949V9.23069H60.3275V13.5256ZM89.0996 0.639426C80.3071 0.639426 75.681 4.80722 75.681 10.9266C75.681 17.8401 80.534 21.3468 89.0996 21.3468C98.5294 21.3468 102.494 17.2804 102.494 10.9266C102.494 4.47894 98.0209 0.64094 89.0996 0.64094V0.639426ZM89.0754 5.82384C89.6584 5.82209 90.2408 5.85537 90.8196 5.92368L83.1482 13.5997C82.7952 12.7844 82.6233 11.9023 82.6444 11.0143C82.6383 7.88429 84.2207 5.82534 89.0754 5.82534V5.82384ZM89.0996 16.2441C88.5076 16.2465 87.916 16.2122 87.3282 16.1412L95.0697 8.39864C95.4328 9.2201 95.6073 10.1131 95.5794 11.0113C95.5817 14.0535 94.1357 16.2456 89.0996 16.2456V16.2441Z" fill="#0D0E10"/>
</svg>
