<svg width="173" height="40" viewBox="0 0 173 40" fill="none" xmlns="http://www.w3.org/2000/svg">
<path d="M0.331451 39.042H39.1351V0.238281H0.331451V39.042ZM31.6663 15.9066H23.4669V7.70704H31.6663V15.9066ZM7.7987 7.70704H16.0027V23.3737H31.6663V31.5733H7.7987V7.70704ZM64.4036 0.238281C60.5663 0.238281 56.8152 1.37627 53.6246 3.50817C50.4339 5.64007 47.9472 8.67023 46.4788 12.2155C45.0103 15.7607 44.626 19.6616 45.3746 23.4253C46.1232 27.1888 47.9711 30.6459 50.6845 33.3593C53.3979 36.0727 56.8549 37.9206 60.6185 38.6692C64.3821 39.4178 68.2832 39.0335 71.8288 37.5651C75.3735 36.0966 78.4038 33.6099 80.5357 30.4192C82.6676 27.2286 83.8057 23.4775 83.8057 19.6402C83.7998 14.4963 81.7529 9.56489 78.1163 5.92762C74.4786 2.29035 69.548 0.244333 64.4036 0.238281ZM64.4036 31.5733C62.0435 31.5733 59.7363 30.8733 57.774 29.5622C55.8116 28.2509 54.2821 26.3872 53.3789 24.2067C52.4758 22.0263 52.2394 19.627 52.6999 17.3121C53.1603 14.9974 54.2969 12.8711 55.9657 11.2022C57.6346 9.53335 59.7608 8.39688 62.0756 7.9364C64.3905 7.47592 66.7898 7.71227 68.9708 8.61542C71.1504 9.51857 73.0147 11.0481 74.3261 13.0105C75.6365 14.9728 76.337 17.28 76.337 19.6402C76.3324 22.8035 75.0732 25.836 72.8366 28.0729C70.6 30.3096 67.567 31.5684 64.4036 31.5733ZM153.234 0.238281C149.397 0.238049 145.646 1.37568 142.455 3.50735C139.264 5.63914 136.777 8.66919 135.309 12.2144C133.84 15.7595 133.455 19.6607 134.203 23.4243C134.953 27.188 136.799 30.6452 139.513 33.3587C142.227 36.0724 145.683 37.9203 149.448 38.6691C153.211 39.4178 157.112 39.0337 160.658 37.5653C164.202 36.0968 167.233 33.61 169.365 30.4194C171.496 27.2287 172.635 23.4775 172.635 19.6402C172.629 14.4965 170.583 9.56535 166.946 5.9282C163.309 2.29093 158.378 0.244798 153.234 0.238281ZM153.234 31.5733C150.874 31.5735 148.567 30.8739 146.605 29.5629C144.642 28.2518 143.113 26.3883 142.208 24.2077C141.305 22.0273 141.069 19.628 141.529 17.313C141.99 14.9982 143.125 12.8718 144.794 11.2028C146.463 9.5337 148.59 8.39712 150.905 7.93652C153.219 7.47593 155.619 7.71216 157.8 8.61531C159.979 9.51846 161.844 11.0479 163.155 13.0104C164.467 14.9727 165.166 17.28 165.166 19.6402C165.161 22.8033 163.902 25.8354 161.667 28.0723C159.43 30.309 156.397 31.568 153.234 31.5733ZM108.818 0.238281C104.982 0.238281 101.23 1.37627 98.0389 3.50817C94.8492 5.64007 92.3624 8.67023 90.8938 12.2155C89.4252 15.7607 89.0412 19.6616 89.7894 23.4253C90.5377 27.1888 92.3856 30.6459 95.0994 33.3593C97.812 36.0727 101.269 37.9206 105.033 38.6692C108.797 39.4178 112.698 39.0335 116.243 37.5651C119.788 36.0966 122.819 33.6099 124.951 30.4192C127.083 27.2286 128.221 23.4775 128.221 19.6402C128.214 14.4963 126.168 9.56489 122.531 5.92762C118.894 2.29035 113.962 0.244333 108.818 0.238281ZM108.818 31.5733C106.619 31.5743 104.463 30.9678 102.587 29.8206C100.711 28.6736 99.1886 27.0303 98.1879 25.0725C97.1859 23.1146 96.746 20.9182 96.9148 18.7258C97.0823 16.5334 97.8539 14.4301 99.1421 12.6481C100.43 10.8663 102.186 9.47493 104.216 8.62799C106.245 7.78093 108.469 7.51107 110.642 7.8482C112.814 8.1852 114.852 9.11617 116.529 10.5382C118.207 11.9603 119.458 13.818 120.146 15.9066H108.818V23.3737H120.146C119.358 25.757 117.84 27.8315 115.806 29.3032C113.773 30.775 111.328 31.5692 108.818 31.5733Z" fill="#0D0E10"/>
</svg>
