<svg width="270" height="153" viewBox="0 0 270 153" fill="none" xmlns="http://www.w3.org/2000/svg">
<g opacity="0.6">
<g opacity="0.5">
<path d="M62.9056 74.4009C62.33 74.9798 61.8892 75.6788 61.6147 76.4476C61.34 77.2166 61.2384 78.0366 61.317 78.8493L61.2897 78.8219C61.3703 79.7786 61.2414 80.7411 60.9117 81.6428C60.5819 82.5444 60.0595 83.3632 59.3806 84.0419C58.7019 84.7208 57.8831 85.2432 56.9815 85.573C56.0799 85.9027 55.1171 86.0316 54.1607 85.951L54.188 85.9783C53.0437 85.8718 51.8943 86.1207 50.8969 86.6914C49.8992 87.262 49.102 88.1263 48.6137 89.1667C48.1253 90.2068 47.9697 91.3726 48.1682 92.5044C48.3665 93.6363 48.9092 94.6795 49.7222 95.4919C50.5351 96.3041 51.5788 96.8458 52.7109 97.0432C53.8431 97.2405 55.0086 97.0839 56.0485 96.5947C57.0883 96.1053 57.952 95.3073 58.5217 94.3091C59.0912 93.3112 59.3393 92.1616 59.2318 91.0175L59.2606 91.0448C59.1798 90.0882 59.3087 89.1255 59.6385 88.224C59.9682 87.3224 60.4906 86.5036 61.1695 85.8247C61.8484 85.146 62.6672 84.6234 63.5686 84.2938C64.4703 83.9641 65.433 83.835 66.3896 83.9158L66.3608 83.8885C67.2955 83.9725 68.2363 83.8193 69.0959 83.443C69.9557 83.0665 70.7064 82.4793 71.2788 81.7354C71.8511 80.9917 72.2264 80.1154 72.3698 79.188C72.5134 78.2605 72.4204 77.312 72.0996 76.4299C71.7788 75.548 71.2407 74.7613 70.535 74.1427C69.8291 73.524 68.9786 73.0937 68.0623 72.8914C67.1458 72.6891 66.1932 72.7213 65.2924 72.9851C64.3918 73.249 63.5724 73.736 62.9102 74.4009H62.9056Z" fill="#0D0E10"/>
<path d="M51.7016 82.3969L51.6728 82.3696C52.4858 82.4516 53.3069 82.3517 54.0766 82.0775C54.8463 81.8032 55.5456 81.3613 56.1236 80.7837C56.7015 80.206 57.144 79.5072 57.4189 78.7377C57.6938 77.9682 57.7942 77.1473 57.7128 76.3341L57.7417 76.3614C57.661 75.4049 57.79 74.4422 58.1197 73.5406C58.4494 72.6389 58.9719 71.8202 59.6506 71.1415C60.3295 70.4626 61.1483 69.9401 62.0499 69.6104C62.9515 69.2806 63.9141 69.1517 64.8707 69.2324L64.8419 69.205C65.9861 69.3125 67.1358 69.0643 68.134 68.4944C69.1322 67.9246 69.9302 67.0606 70.4192 66.0204C70.9082 64.9802 71.0645 63.8147 70.8667 62.6823C70.669 61.55 70.1268 60.5065 69.3141 59.6938C68.5012 58.8809 67.4576 58.3387 66.3253 58.1409C65.1932 57.9432 64.0275 58.0994 62.9873 58.5885C61.9471 59.0775 61.0831 59.8757 60.5132 60.8737C59.9434 61.8718 59.6951 63.0215 59.8026 64.1658L59.7753 64.137C59.8563 65.0936 59.7275 66.0565 59.398 66.9581C59.0682 67.8599 58.5458 68.6787 57.8669 69.3576C57.188 70.0365 56.3692 70.5591 55.4674 70.8887C54.5658 71.2182 53.6029 71.347 52.6463 71.266L52.6736 71.2948C51.8606 71.213 51.0394 71.3127 50.2698 71.587C49.5001 71.8613 48.8008 72.3033 48.2228 72.8808C47.6449 73.4584 47.2024 74.1572 46.9275 74.9267C46.6526 75.6964 46.5522 76.5173 46.6336 77.3304L46.6062 77.303C46.6867 78.2597 46.5576 79.2222 46.2277 80.1237C45.898 81.0251 45.3754 81.8437 44.6966 82.5225C44.0179 83.2013 43.1993 83.7238 42.2979 84.0535C41.3962 84.3834 40.4337 84.5125 39.4772 84.432L39.5045 84.4594C38.3603 84.3519 37.2106 84.6001 36.2124 85.17C35.2142 85.74 34.4162 86.6038 33.9272 87.644C33.4382 88.6842 33.2819 89.8499 33.4797 90.9821C33.6774 92.1144 34.2196 93.1581 35.0323 93.9708C35.8452 94.7835 36.8888 95.3257 38.0211 95.5235C39.1532 95.7212 40.3189 95.565 41.3591 95.0759C42.3993 94.5869 43.2633 93.7889 43.8332 92.7907C44.403 91.7926 44.6512 90.643 44.5438 89.4986L44.5726 89.5259C44.492 88.5694 44.6209 87.6067 44.9506 86.7051C45.2803 85.8035 45.8028 84.9847 46.4815 84.306C47.1604 83.6271 47.9792 83.1046 48.8808 82.7749C49.7824 82.4452 50.745 82.3162 51.7016 82.3969Z" fill="#0D0E10"/>
<path d="M41.5231 79.349C42.0987 78.77 42.5395 78.071 42.8139 77.3022C43.0881 76.5332 43.1894 75.7131 43.1102 74.9006L43.1391 74.9279C43.0583 73.9711 43.1873 73.008 43.5173 72.1062C43.847 71.2044 44.3698 70.3855 45.049 69.7066C45.7282 69.0277 46.5473 68.5053 47.4493 68.1759C48.3513 67.8463 49.3143 67.7177 50.2711 67.7989L50.2423 67.7715C51.3862 67.8787 52.5354 67.6305 53.5331 67.0606C54.5307 66.4906 55.3284 65.6269 55.8171 64.5871C56.3058 63.5472 56.4621 62.382 56.2643 61.2502C56.0665 60.1184 55.5243 59.075 54.712 58.2627C53.8994 57.4501 52.8562 56.9081 51.7244 56.7103C50.5926 56.5125 49.4274 56.6686 48.3875 57.1575C47.3477 57.6462 46.4839 58.4439 45.914 59.4415C45.3441 60.4392 45.0959 61.5884 45.2031 62.7323L45.1757 62.705C45.2564 63.6616 45.1275 64.6242 44.7977 65.5258C44.468 66.4275 43.9455 67.2462 43.2667 67.9251C42.5879 68.6038 41.7692 69.1263 40.8675 69.456C39.9659 69.7857 39.0034 69.9147 38.0467 69.834L38.0741 69.8613C37.1393 69.7775 36.1986 69.931 35.3391 70.3075C34.4795 70.684 33.7287 71.2714 33.1567 72.0153C32.5846 72.7591 32.2095 73.6354 32.066 74.5629C31.9228 75.4903 32.0159 76.4389 32.3367 77.3208C32.6577 78.2027 33.1958 78.9892 33.9017 79.6077C34.6076 80.2261 35.4581 80.6565 36.3744 80.8586C37.2907 81.0609 38.2433 81.0285 39.1439 80.7648C40.0445 80.5009 40.8638 80.0139 41.5262 79.349H41.5231Z" fill="#0D0E10"/>
<path d="M88.5695 64.2012H93.0801V86.1517H88.5695V64.2012Z" fill="#0D0E10"/>
<path d="M95.6347 78.6355C95.6283 77.0581 96.0903 75.5143 96.9621 74.1996C97.8338 72.8849 99.0762 71.8585 100.532 71.2505C101.987 70.6425 103.591 70.4802 105.139 70.7839C106.686 71.0879 108.109 71.8444 109.227 72.9574C110.345 74.0707 111.107 75.4906 111.417 77.0373C111.727 78.5839 111.571 80.1879 110.969 81.6459C110.367 83.1037 109.345 84.3503 108.034 85.2273C106.723 86.1044 105.181 86.5725 103.604 86.5725C102.556 86.5845 101.517 86.3876 100.547 85.9934C99.5772 85.599 98.6953 85.0155 97.9533 84.2763C97.2115 83.5374 96.6242 82.658 96.2261 81.6894C95.8279 80.721 95.6269 79.6826 95.6347 78.6355ZM107.062 78.6355C107.043 77.9557 106.824 77.2963 106.433 76.74C106.041 76.1838 105.494 75.7553 104.861 75.5081C104.227 75.2609 103.535 75.206 102.87 75.3501C102.205 75.4944 101.597 75.8314 101.123 76.3189C100.649 76.8066 100.329 77.4231 100.203 78.0917C100.078 78.7601 100.152 79.4508 100.416 80.0773C100.681 80.7041 101.124 81.2387 101.691 81.6147C102.258 81.9905 102.923 82.1909 103.604 82.1909C104.069 82.2034 104.533 82.1192 104.964 81.9436C105.396 81.7681 105.787 81.505 106.112 81.1708C106.437 80.8369 106.689 80.4391 106.852 80.0028C107.016 79.5664 107.087 79.1008 107.062 78.6355Z" fill="#0D0E10"/>
<path d="M129.55 71.1174V85.3936C129.55 90.445 125.61 92.5803 121.611 92.5803C120.203 92.6856 118.794 92.4013 117.537 91.7584C116.28 91.1154 115.224 90.1387 114.485 88.9353L118.334 86.7104C118.644 87.3376 119.139 87.8552 119.751 88.1935C120.364 88.532 121.065 88.6753 121.762 88.6043C122.207 88.6658 122.66 88.6267 123.088 88.4895C123.515 88.3525 123.907 88.121 124.233 87.812C124.559 87.5032 124.812 87.1248 124.972 86.7053C125.133 86.2856 125.196 85.8352 125.159 85.3875V84.0131C124.631 84.6594 123.959 85.1727 123.196 85.5123C122.434 85.8518 121.602 86.0077 120.768 85.9677C118.785 85.9051 116.903 85.0732 115.522 83.6477C114.141 82.2223 113.368 80.3154 113.368 78.3306C113.368 76.3459 114.141 74.439 115.522 73.0136C116.903 71.5882 118.785 70.7562 120.768 70.6936C121.602 70.6536 122.434 70.8096 123.196 71.1491C123.959 71.4885 124.631 72.002 125.159 72.6483V71.1143L129.55 71.1174ZM125.161 78.3329C125.191 77.606 125.003 76.8866 124.621 76.2675C124.239 75.6481 123.68 75.1574 123.017 74.8584C122.354 74.5592 121.616 74.4654 120.899 74.5891C120.182 74.7128 119.519 75.0481 118.994 75.5521C118.469 76.056 118.107 76.7055 117.955 77.4168C117.802 78.1283 117.866 78.8691 118.138 79.5439C118.41 80.2187 118.878 80.7967 119.481 81.2034C120.085 81.6101 120.796 81.8269 121.523 81.8261C121.997 81.8591 122.473 81.7927 122.919 81.6307C123.366 81.4688 123.774 81.2152 124.116 80.8861C124.459 80.5571 124.729 80.1598 124.909 79.7201C125.089 79.2803 125.175 78.8078 125.161 78.3329Z" fill="#0D0E10"/>
<path d="M132.104 78.6355C132.098 77.0581 132.56 75.5143 133.432 74.1996C134.304 72.8849 135.546 71.8585 137.002 71.2505C138.457 70.6425 140.06 70.4802 141.608 70.7839C143.156 71.0879 144.579 71.8444 145.697 72.9574C146.814 74.0707 147.576 75.4906 147.887 77.0373C148.197 78.5839 148.041 80.1879 147.439 81.6459C146.836 83.1037 145.815 84.3503 144.504 85.2273C143.193 86.1044 141.651 86.5725 140.073 86.5725C139.026 86.5845 137.987 86.3876 137.017 85.9934C136.047 85.599 135.165 85.0155 134.423 84.2763C133.681 83.5374 133.094 82.658 132.696 81.6894C132.298 80.721 132.097 79.6826 132.104 78.6355ZM143.532 78.6355C143.513 77.9557 143.294 77.2963 142.902 76.74C142.511 76.1838 141.964 75.7553 141.33 75.5081C140.697 75.2609 140.004 75.206 139.339 75.3501C138.675 75.4944 138.067 75.8314 137.593 76.3189C137.119 76.8066 136.799 77.4231 136.673 78.0917C136.547 78.7601 136.621 79.4508 136.886 80.0773C137.151 80.7041 137.594 81.2387 138.161 81.6147C138.728 81.9905 139.393 82.1909 140.073 82.1909C140.539 82.2034 141.002 82.1192 141.434 81.9436C141.866 81.7681 142.256 81.505 142.581 81.1708C142.906 80.8369 143.158 80.4391 143.322 80.0028C143.485 79.5664 143.557 79.1008 143.532 78.6355Z" fill="#0D0E10"/>
<path d="M150.145 67.0883C150.145 66.553 150.304 66.0297 150.602 65.5847C150.899 65.1396 151.322 64.7928 151.816 64.5879C152.311 64.383 152.855 64.3294 153.38 64.4338C153.905 64.5383 154.387 64.796 154.766 65.1745C155.144 65.553 155.402 66.0353 155.506 66.5603C155.611 67.0852 155.557 67.6295 155.352 68.1239C155.147 68.6185 154.801 69.0412 154.355 69.3386C153.91 69.6359 153.387 69.7947 152.852 69.7947C152.136 69.7876 151.452 69.5001 150.946 68.9941C150.44 68.4881 150.153 67.8038 150.145 67.0883ZM150.601 71.1175H155.113V86.1531H150.595L150.601 71.1175Z" fill="#0D0E10"/>
<path d="M174.59 78.6349C174.643 79.6286 174.498 80.6227 174.164 81.5603C173.831 82.4979 173.315 83.3602 172.646 84.0978C171.978 84.8354 171.172 85.4336 170.272 85.8584C169.373 86.283 168.397 86.5254 167.403 86.5719C166.567 86.6174 165.732 86.4765 164.957 86.1593C164.182 85.8418 163.488 85.3562 162.924 84.7372V92.1654H158.414V71.1171H162.924V72.5295C163.488 71.911 164.183 71.4257 164.957 71.1086C165.732 70.7915 166.567 70.6508 167.403 70.6964C168.397 70.7426 169.373 70.9851 170.272 71.4097C171.173 71.8342 171.98 72.4328 172.648 73.1706C173.316 73.9084 173.831 74.771 174.165 75.7087C174.498 76.6467 174.643 77.6411 174.59 78.6349ZM170.08 78.6349C170.061 77.9312 169.837 77.2484 169.433 76.6718C169.028 76.0952 168.464 75.6505 167.809 75.3935C167.154 75.1363 166.437 75.0783 165.749 75.2265C165.061 75.3746 164.432 75.7224 163.94 76.2263C163.449 76.7304 163.117 77.3681 162.986 78.0596C162.855 78.7513 162.932 79.4661 163.205 80.1148C163.479 80.7633 163.937 81.3168 164.524 81.706C165.11 82.0953 165.799 82.3028 166.502 82.3027C166.986 82.3243 167.468 82.2433 167.918 82.0654C168.368 81.8874 168.775 81.6163 169.113 81.2701C169.45 80.9236 169.71 80.5098 169.877 80.0557C170.044 79.6016 170.114 79.1175 170.08 78.6349Z" fill="#0D0E10"/>
<path d="M188.509 81.6408C188.509 85.099 185.503 86.5722 182.257 86.5722C180.944 86.691 179.628 86.4135 178.475 85.7757C177.322 85.1376 176.388 84.1687 175.792 82.994L179.698 80.769C179.857 81.3121 180.196 81.7844 180.66 82.1072C181.126 82.43 181.686 82.5837 182.25 82.5429C183.332 82.5429 183.873 82.2118 183.873 81.6119C183.873 79.9565 176.477 80.8298 176.477 75.628C176.477 72.3491 179.243 70.6967 182.37 70.6967C183.546 70.6594 184.71 70.9381 185.741 71.504C186.772 72.0698 187.633 72.9017 188.232 73.9134L184.385 75.988C184.216 75.5941 183.934 75.2587 183.576 75.0234C183.219 74.7882 182.798 74.6636 182.37 74.6652C181.588 74.6652 181.108 74.9689 181.108 75.5065C181.113 77.2212 188.509 76.0776 188.509 81.6408Z" fill="#0D0E10"/>
<path d="M204.986 71.1172V86.1528H200.475V84.7389C199.955 85.3629 199.294 85.8545 198.548 86.1734C197.8 86.4923 196.987 86.6294 196.177 86.5735C193.139 86.5735 190.558 84.4093 190.558 80.3466V71.1172H195.068V79.686C195.031 80.0441 195.072 80.4062 195.188 80.7469C195.304 81.0876 195.493 81.399 195.743 81.6592C195.991 81.9194 196.293 82.1222 196.629 82.2535C196.965 82.385 197.324 82.4417 197.684 82.4197C199.338 82.4197 200.48 81.4584 200.48 79.323V71.1217L204.986 71.1172Z" fill="#0D0E10"/>
<path d="M230.85 76.9205V86.1515H226.339V77.3108C226.339 75.8073 225.619 74.8459 224.176 74.8459C222.672 74.8459 221.829 75.8984 221.829 77.6723V86.1515H217.32V77.3108C217.32 75.8073 216.599 74.8459 215.155 74.8459C213.651 74.8459 212.809 75.8984 212.809 77.6723V86.1515H208.298V71.1159H212.809V72.4979C213.276 71.8847 213.891 71.3985 214.594 71.0836C215.298 70.7686 216.069 70.6351 216.839 70.6952C217.61 70.6574 218.379 70.8202 219.07 71.1678C219.76 71.5155 220.347 72.0359 220.777 72.6787C221.277 72.0064 221.938 71.4718 222.701 71.1248C223.464 70.7779 224.302 70.63 225.136 70.6952C228.589 70.6967 230.85 73.1616 230.85 76.9205Z" fill="#0D0E10"/>
<path d="M234.665 71.0247C236.515 71.0247 238.013 69.5261 238.013 67.6774C238.013 65.8287 236.515 64.3301 234.665 64.3301C232.816 64.3301 231.317 65.8287 231.317 67.6774C231.317 69.5261 232.816 71.0247 234.665 71.0247Z" fill="#0D0E10"/>
</g>
</g>
</svg>
