<svg width="270" height="153" viewBox="0 0 270 153" fill="none" xmlns="http://www.w3.org/2000/svg">
<g opacity="0.6">
<path d="M15.8372 46.5713V100.416H256.677V46.5713H15.8372ZM253.64 97.378H130.621V49.6088H253.64V97.378Z" fill="#0D0E10"/>
<path d="M28.6389 82.5143V64.6128H34.8172V77.7469H45.7157V82.5143H28.6389Z" fill="white"/>
<path d="M70.0734 73.4382C70.0734 79.138 66.5165 82.7876 58.0556 82.7876C50.3707 82.7876 46.0149 79.6407 46.0149 73.4382C46.0149 67.9418 50.1672 64.2026 58.0556 64.2026C66.067 64.2026 70.0734 67.6456 70.0734 73.4382ZM63.8709 73.5065C63.8709 70.9246 62.7986 68.8546 58.0328 68.8546C53.677 68.8546 52.2615 70.7014 52.2615 73.5065C52.2615 76.3572 53.5601 78.204 58.0525 78.204C62.5739 78.204 63.8709 76.2433 63.8709 73.5065Z" fill="white"/>
<path d="M89.1852 82.5139L89.0257 80.7795C86.9591 82.2545 84.4433 82.9645 81.9104 82.7873C78.1029 82.7873 74.9318 81.6467 73.1533 79.3443C71.9805 77.6634 71.388 75.6456 71.466 73.5973C71.3995 71.5921 72.0122 69.6233 73.2049 68.0098C75.0046 65.7758 78.2669 64.2935 83.1239 64.2935C88.7114 64.2935 91.9949 66.0036 93.4073 68.877C93.7106 69.5537 93.8886 70.2799 93.9328 71.02H88.0219C87.873 70.5703 87.5959 70.1739 87.2245 69.8794C86.0471 69.099 84.6411 68.7378 83.2332 68.8543C82.4075 68.7542 81.57 68.8305 80.7759 69.0782C79.9818 69.3259 79.2494 69.7392 78.6269 70.291C77.9201 71.2584 77.5884 72.4495 77.6928 73.6429C77.611 74.7816 77.9161 75.9146 78.5585 76.8581C79.1868 77.4433 79.9333 77.8866 80.7477 78.158C81.5621 78.4295 82.4253 78.5228 83.2788 78.4315C84.9744 78.5694 86.6575 78.0464 87.9763 76.972C88.2598 76.6178 88.4549 76.2015 88.5458 75.757H82.1853V71.91H94.0877V82.5139H89.1852Z" fill="white"/>
<path d="M119.879 73.4382C119.879 79.138 116.321 82.7876 107.861 82.7876C100.176 82.7876 95.8206 79.6407 95.8206 73.4382C95.8206 67.9418 99.9729 64.2026 107.861 64.2026C115.867 64.2026 119.879 67.6456 119.879 73.4382ZM113.677 73.5065C113.677 70.9246 112.604 68.8546 107.839 68.8546C103.483 68.8546 102.067 70.7014 102.067 73.5065C102.067 76.3572 103.367 78.204 107.858 78.204C112.378 78.204 113.677 76.2433 113.677 73.5065Z" fill="white"/>
<path d="M141.028 82.4459V64.5444H145.432V82.4459H141.028Z" fill="#0D0E10"/>
<path d="M168.049 74.9661C166.933 76.4257 165.012 77.0924 162.304 77.1091C161.733 77.1091 154.162 77.0863 154.162 77.0863V82.446H149.852V64.5445H162.305C163.304 64.439 164.313 64.5448 165.268 64.8551C166.222 65.1655 167.101 65.6734 167.846 66.3457C168.829 67.6279 169.309 69.2264 169.192 70.8382C169.292 72.3041 168.888 73.7604 168.049 74.9661ZM164.515 69.1296C164.06 68.4461 163.077 68.0665 161.414 68.0665H154.139V73.5157H161.367C163.145 73.5157 164.082 73.1512 164.515 72.4435C164.773 71.945 164.883 71.3836 164.834 70.8245C164.873 70.2416 164.763 69.6586 164.515 69.1296Z" fill="#0D0E10"/>
<path d="M181.892 82.7193C173.774 82.7193 171.29 79.6818 171.29 76.6761H175.895C175.895 78.1584 177.925 79.2762 182.098 79.2762C186.248 79.2762 187.343 78.5457 187.343 77.3596C187.343 76.0368 186.523 75.6267 182.667 75.1938C181.907 75.1255 179.842 74.8749 179.066 74.761C173.598 74.1444 171.492 72.5254 171.492 69.6291C171.492 66.5734 174.572 64.271 181.254 64.271C188.506 64.271 191.288 67.1217 191.288 70.0863H186.732C186.732 68.5812 185.021 67.714 180.984 67.714C176.835 67.714 175.946 68.2835 175.946 69.4013C175.946 70.5647 176.857 70.9292 181.261 71.4532C182.265 71.5914 184.499 71.842 185.114 71.9088C189.768 72.3872 191.865 74.0745 191.865 77.0619C191.857 80.6203 188.666 82.7193 181.892 82.7193Z" fill="#0D0E10"/>
<path d="M204.836 82.6965C198.885 82.6965 195.007 80.347 195.007 75.4065V64.5444H199.361V75.4673C199.361 77.7257 201.209 79.2292 205.018 79.2292C208.46 79.2292 210.514 77.8168 210.514 75.4673V64.5444H214.824V75.812C214.824 80.303 211.219 82.6965 204.836 82.6965Z" fill="#0D0E10"/>
<path d="M238.425 82.4459V70.4964L232.838 82.4459H228.597L223.17 70.4964V82.4459H219.07V64.5444H224.625L230.781 78.1813L237.075 64.5444H242.543V82.4459H238.425Z" fill="#0D0E10"/>
</g>
</svg>
