<svg width="270" height="152" viewBox="0 0 270 152" fill="none" xmlns="http://www.w3.org/2000/svg">
<g opacity="0.6">
<path d="M103.088 87.4766C102.189 87.5254 101.299 87.2696 100.562 86.7505C100.254 86.5223 100.007 86.2226 99.8405 85.8774C99.6745 85.5321 99.5949 85.1516 99.6089 84.7687V70.7449C99.6016 70.6856 99.6078 70.6253 99.6273 70.5686C99.6467 70.5121 99.6788 70.4608 99.7212 70.4184C99.7634 70.3762 99.8149 70.344 99.8714 70.3246C99.928 70.305 99.9883 70.2989 100.048 70.3062H102.589C102.877 70.3062 103.013 70.4575 103.013 70.7449V83.6795C103.013 84.2543 103.27 84.5418 103.799 84.5418C104.024 84.551 104.248 84.5255 104.465 84.4661C104.768 84.4661 104.934 84.5569 104.949 84.8292L105.176 86.7202C105.187 86.7753 105.186 86.8322 105.173 86.8869C105.16 86.9416 105.136 86.9929 105.101 87.0373C105.067 87.0817 105.023 87.1183 104.974 87.1445C104.924 87.1707 104.869 87.1859 104.813 87.1892C104.256 87.3731 103.675 87.47 103.088 87.4766Z" fill="#0D0E10"/>
<path d="M117.385 85.8578C116.108 86.9129 114.503 87.4901 112.847 87.4901C111.19 87.4901 109.586 86.9129 108.308 85.8578C107.186 84.7246 106.556 83.1942 106.556 81.5992C106.556 80.0043 107.186 78.4738 108.308 77.3407C109.588 76.2909 111.192 75.7173 112.847 75.7173C114.502 75.7173 116.106 76.2909 117.385 77.3407C118.482 78.4842 119.094 80.0073 119.094 81.5917C119.094 83.176 118.482 84.6991 117.385 85.8427V85.8578ZM110.699 83.8609C111.291 84.3977 112.062 84.695 112.862 84.695C113.662 84.695 114.433 84.3977 115.025 83.8609C115.562 83.2441 115.857 82.4543 115.857 81.637C115.857 80.8197 115.562 80.0299 115.025 79.4132C114.433 78.8764 113.662 78.5791 112.862 78.5791C112.062 78.5791 111.291 78.8764 110.699 79.4132C110.162 80.0299 109.867 80.8197 109.867 81.637C109.867 82.4543 110.162 83.2441 110.699 83.8609Z" fill="#0D0E10"/>
<path d="M133.088 76.0998C133.375 76.0998 133.512 76.251 133.512 76.5385V87.3853C133.538 88.1174 133.401 88.8461 133.111 89.5186C132.82 90.1911 132.384 90.7906 131.832 91.2733C130.609 92.3162 129.036 92.8568 127.43 92.7861C125.98 92.8371 124.549 92.4409 123.33 91.6515C122.81 91.3099 122.366 90.865 122.026 90.3445C121.685 89.8241 121.454 89.239 121.349 88.6258C121.349 88.3233 121.349 88.1871 121.757 88.1871H124.299C124.407 88.1907 124.512 88.2255 124.6 88.2873C124.688 88.349 124.757 88.4351 124.798 88.5351C124.963 88.9945 125.291 89.3769 125.721 89.6092C126.244 89.8792 126.826 90.0143 127.415 90.0025C127.77 90.0219 128.126 89.9704 128.461 89.8509C128.796 89.7315 129.104 89.5463 129.367 89.3066C129.606 89.0557 129.794 88.7587 129.916 88.4338C130.038 88.1088 130.093 87.7624 130.078 87.4156V86.4625C129.168 87.1318 128.061 87.4779 126.931 87.4458C126.141 87.4745 125.353 87.3433 124.615 87.06C123.876 86.7766 123.202 86.347 122.634 85.7969C121.544 84.6684 120.934 83.1605 120.934 81.5913C120.934 80.0219 121.544 78.514 122.634 77.3857C123.206 76.8403 123.88 76.4149 124.617 76.1343C125.355 75.8536 126.142 75.7237 126.931 75.7518C128.093 75.7211 129.23 76.0895 130.153 76.7956V76.5536C130.146 76.4955 130.152 76.4368 130.171 76.3814C130.189 76.3261 130.221 76.2756 130.261 76.2336C130.302 76.1916 130.351 76.1591 130.406 76.1386C130.46 76.118 130.519 76.1099 130.577 76.1149L133.088 76.0998ZM127.218 84.753C127.608 84.765 127.996 84.6914 128.354 84.5372C128.713 84.3829 129.033 84.1519 129.291 83.8605C129.794 83.2109 130.067 82.4127 130.067 81.5913C130.067 80.7697 129.794 79.9715 129.291 79.3221C129.033 79.0345 128.715 78.8069 128.36 78.6554C128.004 78.5037 127.62 78.4318 127.233 78.4446C126.839 78.4322 126.447 78.5056 126.084 78.6597C125.721 78.8137 125.396 79.045 125.131 79.3372C124.573 79.9585 124.281 80.7725 124.314 81.6064C124.287 82.432 124.573 83.2374 125.116 83.8605C125.381 84.1519 125.707 84.3824 126.07 84.5365C126.433 84.6906 126.825 84.7643 127.218 84.753Z" fill="#0D0E10"/>
<path d="M146.567 85.8578C145.287 86.9074 143.684 87.4811 142.029 87.4811C140.373 87.4811 138.769 86.9074 137.49 85.8578C136.392 84.7116 135.78 83.186 135.78 81.5992C135.78 80.0124 136.392 78.4868 137.49 77.3406C138.77 76.2936 140.374 75.7217 142.029 75.7217C143.682 75.7217 145.286 76.2936 146.567 77.3406C147.663 78.4842 148.275 80.0073 148.275 81.5916C148.275 83.176 147.663 84.6991 146.567 85.8426V85.8578ZM139.865 83.8608C140.155 84.1368 140.497 84.3524 140.871 84.4952C141.244 84.638 141.644 84.7052 142.044 84.6929C142.441 84.7031 142.836 84.6349 143.208 84.4923C143.579 84.3495 143.919 84.1349 144.207 83.8608C144.734 83.24 145.024 82.4517 145.024 81.637C145.024 80.8222 144.734 80.034 144.207 79.4132C143.919 79.1391 143.579 78.9245 143.208 78.7818C142.836 78.639 142.441 78.5708 142.044 78.5811C141.644 78.5688 141.244 78.6361 140.871 78.7788C140.497 78.9216 140.155 79.1373 139.865 79.4132C139.337 80.034 139.047 80.8222 139.047 81.637C139.047 82.4517 139.337 83.24 139.865 83.8608Z" fill="#0D0E10"/>
<path d="M153.738 73.5285C153.339 73.8784 152.826 74.0714 152.294 74.0714C151.762 74.0714 151.249 73.8784 150.848 73.5285C150.668 73.3573 150.523 73.151 150.425 72.9221C150.326 72.6932 150.275 72.4465 150.275 72.1972C150.275 71.9479 150.326 71.7011 150.425 71.4722C150.523 71.2433 150.668 71.037 150.848 70.866C151.253 70.5246 151.764 70.3374 152.294 70.3374C152.822 70.3374 153.334 70.5246 153.738 70.866C153.919 71.037 154.064 71.2433 154.163 71.4722C154.262 71.7011 154.313 71.9479 154.313 72.1972C154.313 72.4465 154.262 72.6932 154.163 72.9221C154.064 73.151 153.919 73.3573 153.738 73.5285ZM154.056 87.4765C153.157 87.5206 152.268 87.2653 151.529 86.7504C151.227 86.5189 150.983 86.2182 150.82 85.8734C150.656 85.5286 150.578 85.1498 150.591 84.7686V76.539C150.584 76.4795 150.59 76.4193 150.61 76.3627C150.63 76.3062 150.661 76.2547 150.704 76.2125C150.746 76.1701 150.797 76.1381 150.854 76.1186C150.911 76.0991 150.971 76.0928 151.03 76.1003H153.571C153.859 76.1003 153.995 76.2516 153.995 76.539V83.6794C153.995 84.2542 154.252 84.5417 154.767 84.5417C154.996 84.5499 155.226 84.5244 155.447 84.466C155.75 84.466 155.916 84.5568 155.931 84.8291L156.158 86.7201C156.17 86.7753 156.169 86.8322 156.156 86.8869C156.143 86.9416 156.119 86.9928 156.084 87.0372C156.049 87.0817 156.006 87.1182 155.956 87.1444C155.907 87.1707 155.852 87.1858 155.795 87.1891C155.234 87.3741 154.647 87.4711 154.056 87.4765Z" fill="#0D0E10"/>
<path d="M165.508 75.7374C166.301 75.7061 167.094 75.8346 167.837 76.1152C168.58 76.3959 169.259 76.8231 169.834 77.3713C170.905 78.5194 171.499 80.0304 171.499 81.5996C171.499 83.1689 170.905 84.6798 169.834 85.8279C169.263 86.3811 168.584 86.8124 167.841 87.0959C167.096 87.3792 166.304 87.5089 165.508 87.4769C164.375 87.5021 163.265 87.1569 162.346 86.4936V91.9548C162.346 92.2422 162.195 92.3784 161.907 92.3784H159.366C159.307 92.3893 159.248 92.3858 159.192 92.3684C159.135 92.3509 159.084 92.32 159.042 92.2783C159.001 92.2365 158.97 92.1853 158.952 92.1289C158.935 92.0726 158.932 92.0129 158.942 91.9548V79.5497C158.961 79.4285 158.949 79.3047 158.911 79.1882C158.872 79.0718 158.807 78.966 158.72 78.8793C158.634 78.7925 158.528 78.7274 158.411 78.6888C158.295 78.6502 158.172 78.6394 158.049 78.6572H157.55C157.217 78.6572 157.051 78.5362 157.051 78.2941V76.509C157.044 76.3986 157.074 76.2888 157.137 76.1979C157.2 76.107 157.293 76.0407 157.399 76.0098C157.923 75.8196 158.476 75.7272 159.033 75.7374C159.588 75.6883 160.145 75.8061 160.633 76.0756C161.122 76.3451 161.517 76.7542 161.771 77.2503C162.259 76.7573 162.842 76.369 163.484 76.1089C164.126 75.8488 164.815 75.7224 165.508 75.7374ZM163.148 83.8613C163.418 84.1432 163.742 84.3676 164.101 84.5208C164.459 84.6741 164.845 84.7531 165.235 84.7531C165.626 84.7531 166.011 84.6741 166.371 84.5208C166.729 84.3676 167.053 84.1432 167.323 83.8613C167.892 83.2276 168.19 82.3972 168.155 81.5467C168.195 80.6955 167.896 79.8632 167.323 79.2321C167.053 78.9502 166.729 78.7258 166.371 78.5726C166.011 78.4193 165.626 78.3403 165.235 78.3403C164.845 78.3403 164.459 78.4193 164.101 78.5726C163.742 78.7258 163.418 78.9502 163.148 79.2321C162.597 79.8744 162.311 80.7015 162.346 81.5467C162.316 82.3913 162.602 83.2167 163.148 83.8613Z" fill="#0D0E10"/>
<path d="M178.639 87.4762C177.281 87.5321 175.934 87.2072 174.751 86.5383C174.276 86.2524 173.872 85.8631 173.569 85.3996C173.265 84.936 173.069 84.41 172.996 83.8606C172.996 83.5581 173.102 83.4068 173.435 83.4068H175.659C175.764 83.4108 175.867 83.4441 175.955 83.5029C176.044 83.5615 176.114 83.6435 176.158 83.7396C176.475 84.5565 177.308 84.965 178.639 84.965C179.103 84.9861 179.566 84.8927 179.985 84.6927C180.131 84.6273 180.255 84.5237 180.346 84.3931C180.436 84.2627 180.489 84.1099 180.5 83.9514C180.5 83.558 180.258 83.2857 179.773 83.1042C179.2 82.9131 178.606 82.7863 178.003 82.726C177.29 82.6452 176.583 82.5189 175.886 82.3478C175.208 82.1943 174.591 81.8412 174.116 81.3342C173.836 80.9895 173.63 80.591 173.51 80.1633C173.391 79.7355 173.361 79.2878 173.422 78.848C173.482 78.4081 173.634 77.9854 173.865 77.6064C174.097 77.2273 174.403 76.8999 174.766 76.6445C175.856 75.9499 177.136 75.6115 178.427 75.6763C179.678 75.6341 180.915 75.9433 181.997 76.5689C182.434 76.8161 182.81 77.1576 183.098 77.5685C183.386 77.9794 183.579 78.4493 183.661 78.944C183.661 79.2465 183.525 79.3978 183.253 79.3978H181.014C180.92 79.4034 180.827 79.3804 180.745 79.3318C180.665 79.2832 180.6 79.2113 180.56 79.1255C180.411 78.7672 180.13 78.4801 179.773 78.3237C179.373 78.1139 178.925 78.0098 178.472 78.0212C178.029 77.9971 177.587 78.0855 177.187 78.2783C177.046 78.3327 176.925 78.4281 176.839 78.552C176.752 78.6761 176.705 78.8232 176.702 78.9742C176.713 79.1811 176.789 79.3794 176.919 79.54C177.049 79.7007 177.228 79.8152 177.429 79.8668C178.01 80.0857 178.614 80.238 179.229 80.3206C179.936 80.4137 180.639 80.545 181.332 80.714C182.01 80.8675 182.627 81.2204 183.102 81.7276C183.356 82.0068 183.553 82.3338 183.68 82.6896C183.807 83.0453 183.863 83.4228 183.843 83.8001C183.857 84.3231 183.734 84.8405 183.487 85.3017C183.24 85.7632 182.878 86.1526 182.436 86.4324C181.306 87.158 179.982 87.5221 178.639 87.4762Z" fill="#0D0E10"/>
<path d="M199.833 86.72C199.843 86.7737 199.84 86.8286 199.827 86.8814C199.814 86.9343 199.79 86.984 199.758 87.0277C199.726 87.0714 199.686 87.1081 199.638 87.1358C199.591 87.1635 199.54 87.1816 199.485 87.189C198.934 87.3693 198.357 87.4662 197.776 87.4764C197.201 87.5359 196.62 87.4461 196.091 87.2155C195.56 86.9849 195.099 86.6215 194.75 86.1603C193.682 87.079 192.301 87.5503 190.893 87.4764C190.24 87.5065 189.587 87.3995 188.977 87.1625C188.367 86.9254 187.815 86.5634 187.353 86.0998C186.894 85.6139 186.539 85.0406 186.308 84.4142C186.076 83.7876 185.974 83.1209 186.006 82.4539V76.5388C186.006 76.2514 186.142 76.1001 186.43 76.1001H188.971C189.259 76.1001 189.395 76.2514 189.395 76.5388V82.0001C189.367 82.6805 189.6 83.3458 190.045 83.8608C190.268 84.0967 190.539 84.2822 190.838 84.4049C191.138 84.5275 191.462 84.5844 191.785 84.5718C192.117 84.5863 192.448 84.535 192.759 84.4207C193.071 84.3064 193.357 84.1316 193.601 83.9062C193.831 83.6686 194.01 83.3863 194.128 83.0766C194.245 82.7669 194.298 82.4366 194.281 82.106V76.5388C194.281 76.2514 194.417 76.1001 194.705 76.1001H197.277C197.564 76.1001 197.7 76.2514 197.7 76.5388V83.6642C197.7 84.2542 197.957 84.5416 198.457 84.5416C198.692 84.5507 198.926 84.5252 199.153 84.466C199.21 84.4499 199.27 84.447 199.328 84.4575C199.386 84.468 199.442 84.4915 199.49 84.5266C199.539 84.5615 199.578 84.6069 199.606 84.6592C199.634 84.7116 199.649 84.7697 199.652 84.829L199.833 86.72Z" fill="#0D0E10"/>
<path d="M223.872 86.72C223.886 86.7741 223.887 86.8305 223.875 86.8853C223.865 86.94 223.842 86.9917 223.809 87.0365C223.775 87.0813 223.732 87.1183 223.683 87.1446C223.634 87.1709 223.58 87.186 223.524 87.1889C222.962 87.3718 222.375 87.4687 221.784 87.4764C220.885 87.5227 219.996 87.2671 219.258 86.7502C218.939 86.5288 218.679 86.232 218.503 85.8863C218.326 85.5406 218.237 85.1566 218.244 84.7684V81.2133C218.276 80.5349 218.049 79.8697 217.609 79.3526C217.397 79.1161 217.134 78.9297 216.842 78.8067C216.549 78.6838 216.232 78.6274 215.914 78.6414C215.628 78.6307 215.343 78.685 215.081 78.8003C214.819 78.9156 214.587 79.0889 214.402 79.3072C214.003 79.8141 213.799 80.4475 213.827 81.0922V86.6746C213.827 86.962 213.691 87.1133 213.403 87.1133H210.847C210.787 87.1206 210.727 87.1143 210.671 87.0949C210.614 87.0755 210.563 87.0434 210.52 87.001C210.478 86.9587 210.445 86.9073 210.426 86.8508C210.407 86.7942 210.401 86.7339 210.408 86.6746V81.2133C210.44 80.5423 210.231 79.8818 209.818 79.3526C209.633 79.1302 209.402 78.9512 209.141 78.8283C208.879 78.7054 208.594 78.6417 208.305 78.6414C207.997 78.629 207.688 78.6819 207.402 78.7966C207.115 78.9113 206.856 79.0853 206.641 79.3072C206.208 79.7979 205.986 80.4389 206.021 81.0922V86.6746C206.028 86.7339 206.022 86.7942 206.002 86.8508C205.982 86.9073 205.951 86.9587 205.909 87.001C205.866 87.0434 205.815 87.0755 205.758 87.0949C205.702 87.1143 205.641 87.1206 205.582 87.1133H203.116C202.829 87.1133 202.693 86.962 202.693 86.6746V79.5492C202.71 79.4279 202.7 79.304 202.661 79.1876C202.623 79.0712 202.558 78.9654 202.47 78.8787C202.384 78.792 202.278 78.7267 202.162 78.6882C202.046 78.6496 201.921 78.6388 201.8 78.6567H201.301C200.968 78.6567 200.802 78.5356 200.802 78.2936V76.5084C200.793 76.3979 200.824 76.2882 200.888 76.1973C200.95 76.1064 201.044 76.0401 201.149 76.0093C201.673 75.819 202.227 75.7267 202.783 75.7369C203.317 75.6913 203.854 75.7979 204.331 76.0442C204.807 76.2904 205.204 76.6664 205.476 77.1286C205.987 76.645 206.591 76.2717 207.252 76.0322C207.913 75.7927 208.617 75.6921 209.319 75.7369C210.001 75.7037 210.68 75.8314 211.303 76.11C211.926 76.3887 212.475 76.8102 212.904 77.3404C213.404 76.7964 214.02 76.3702 214.705 76.0929C215.391 75.8156 216.13 75.694 216.868 75.7369C217.527 75.706 218.187 75.8124 218.805 76.0493C219.422 76.2863 219.983 76.6487 220.453 77.1136C220.913 77.5984 221.269 78.1715 221.5 78.7983C221.732 79.4249 221.833 80.0922 221.799 80.7595V83.6792C221.799 84.2541 222.057 84.5415 222.541 84.5415C222.775 84.5523 223.01 84.5268 223.237 84.4659C223.55 84.4659 223.716 84.5869 223.736 84.829L223.872 86.72Z" fill="#0D0E10"/>
<path d="M46.48 74.1336C47.5961 69.6475 50.181 65.6639 53.8231 62.8169C57.4651 59.97 61.955 58.4233 66.5777 58.4233C71.2005 58.4233 75.6903 59.97 79.3323 62.8169C82.9745 65.6639 85.5593 69.6475 86.6754 74.1336H84.86C81.7976 74.0884 78.798 75.0037 76.2824 76.7507C76.1373 76.8558 75.9857 76.9518 75.8286 77.0382H75.6168C75.4597 76.9518 75.3081 76.8558 75.1629 76.7507C72.625 75.044 69.636 74.1326 66.5777 74.1326C63.5194 74.1326 60.5304 75.044 57.9925 76.7507C57.8474 76.8558 57.6958 76.9518 57.5387 77.0382H57.3269C57.1698 76.9518 57.0182 76.8558 56.873 76.7507C54.3574 75.0037 51.3578 74.0884 48.2954 74.1336H46.48ZM81.5924 83.6189C82.5243 82.8931 83.6794 82.5135 84.86 82.5448H87.2957V77.6887H84.86C82.7803 77.6634 80.748 78.3108 79.066 79.5343C78.1194 80.232 76.9743 80.6086 75.7983 80.6086C74.6223 80.6086 73.4772 80.232 72.5306 79.5343C70.8059 78.3336 68.7549 77.6901 66.6533 77.6901C64.5519 77.6901 62.5008 78.3336 60.7761 79.5343C59.8295 80.232 58.6844 80.6086 57.5084 80.6086C56.3324 80.6086 55.1873 80.232 54.2407 79.5343C52.5379 78.2952 50.4765 77.647 48.371 77.6887H45.8597V82.5448H48.2954C49.4762 82.5135 50.6312 82.8931 51.563 83.6189C53.2846 84.8203 55.3334 85.4644 57.4328 85.4644C59.5321 85.4644 61.5809 84.8203 63.3025 83.6189C64.2356 82.8953 65.3898 82.5159 66.5701 82.5448C67.7513 82.5109 68.9071 82.8909 69.8378 83.6189C71.5625 84.8195 73.6137 85.4631 75.7151 85.4631C77.8166 85.4631 79.8676 84.8195 81.5924 83.6189ZM81.5924 92.3024C82.5243 91.5766 83.6794 91.197 84.86 91.2283H87.2957V86.3722H84.86C82.7803 86.3469 80.748 86.9943 79.066 88.2178C78.1194 88.9156 76.9743 89.2922 75.7983 89.2922C74.6223 89.2922 73.4772 88.9156 72.5306 88.2178C70.8059 87.0171 68.7549 86.3736 66.6533 86.3736C64.5519 86.3736 62.5008 87.0171 60.7761 88.2178C59.8295 88.9156 58.6844 89.2922 57.5084 89.2922C56.3324 89.2922 55.1873 88.9156 54.2407 88.2178C52.5379 86.9787 50.4765 86.3305 48.371 86.3722H45.8597V91.2283H48.2954C49.4762 91.197 50.6312 91.5766 51.563 92.3024C53.2846 93.5038 55.3334 94.1479 57.4328 94.1479C59.5321 94.1479 61.5809 93.5038 63.3025 92.3024C64.2356 91.5788 65.3898 91.1995 66.5701 91.2283C67.7513 91.1945 68.9071 91.5744 69.8378 92.3024C71.5625 93.503 73.6137 94.1467 75.7151 94.1467C77.8166 94.1467 79.8676 93.503 81.5924 92.3024Z" fill="#0D0E10"/>
</g>
</svg>
