<svg width="270" height="152" viewBox="0 0 270 152" fill="none" xmlns="http://www.w3.org/2000/svg">
<g opacity="0.6">
<path d="M58.8219 83.543H63.3603V105.796H58.8219V83.543Z" fill="#0D0E10"/>
<path d="M65.9931 98.1717C65.99 96.5732 66.4613 95.0099 67.3471 93.6795C68.2331 92.349 69.4936 91.3112 70.9695 90.6974C72.4454 90.0836 74.0702 89.9215 75.6382 90.2315C77.2063 90.5415 78.6471 91.3097 79.7784 92.4388C80.9097 93.5681 81.6806 95.0075 81.9936 96.575C82.3065 98.1424 82.1474 99.7675 81.5364 101.244C80.9254 102.722 79.89 103.984 78.5612 104.872C77.2323 105.761 75.6699 106.235 74.0715 106.235C73.0085 106.247 71.9539 106.047 70.9693 105.646C69.9847 105.245 69.0899 104.652 68.3376 103.901C67.5851 103.15 66.9902 102.257 66.5877 101.273C66.1851 100.289 65.9829 99.2346 65.9931 98.1717ZM77.5812 98.1717C77.5634 97.4816 77.3424 96.8123 76.946 96.2472C76.5498 95.682 75.9955 95.2463 75.3529 94.9946C74.7102 94.7427 74.0076 94.6861 73.3329 94.8315C72.658 94.9771 72.0413 95.3183 71.5594 95.8125C71.0776 96.3069 70.7522 96.9322 70.624 97.6104C70.4958 98.2887 70.5704 98.9897 70.8385 99.6256C71.1066 100.262 71.5564 100.805 72.1313 101.186C72.7063 101.568 73.3813 101.772 74.0715 101.772C74.5437 101.785 75.0136 101.701 75.4515 101.523C75.8893 101.346 76.2856 101.079 76.6153 100.741C76.9451 100.403 77.2012 99.9998 77.3674 99.5576C77.5337 99.1153 77.6064 98.6435 77.5812 98.1717Z" fill="#0D0E10"/>
<path d="M100.394 90.5474V105.04C100.394 110.169 96.3851 112.332 92.3308 112.332C90.9051 112.438 89.4777 112.15 88.205 111.499C86.9321 110.847 85.863 109.859 85.1147 108.641L89.0177 106.387C89.3275 107.011 89.8175 107.528 90.4244 107.87C91.0313 108.213 91.7271 108.365 92.4215 108.308C92.8786 108.384 93.347 108.354 93.7908 108.221C94.2345 108.087 94.6415 107.854 94.9806 107.538C95.3197 107.222 95.5819 106.833 95.7467 106.4C95.9115 105.967 95.9747 105.501 95.9313 105.04V103.633C95.3977 104.29 94.717 104.811 93.9443 105.155C93.1716 105.5 92.3286 105.657 91.4836 105.615C89.4293 105.615 87.4593 104.799 86.0066 103.346C84.5541 101.894 83.738 99.9237 83.738 97.8694C83.738 95.8151 84.5541 93.8451 86.0066 92.3924C87.4593 90.9399 89.4293 90.1238 91.4836 90.1238C92.3281 90.0853 93.1698 90.2443 93.942 90.5884C94.7142 90.9324 95.3953 91.4519 95.9313 92.1056V90.5928L100.394 90.5474ZM95.9313 97.8694C95.9615 97.1337 95.7709 96.4057 95.3841 95.7792C94.9973 95.1525 94.4318 94.656 93.7606 94.3532C93.0893 94.0505 92.3429 93.9555 91.6172 94.0804C90.8914 94.2053 90.2197 94.5444 89.6881 95.0541C89.1567 95.5638 88.7899 96.2207 88.6347 96.9405C88.4796 97.6604 88.5433 98.4102 88.8177 99.0935C89.0921 99.777 89.5645 100.363 90.1744 100.775C90.7843 101.188 91.5036 101.409 92.24 101.409C92.7207 101.443 93.2031 101.376 93.6562 101.212C94.1094 101.049 94.5232 100.792 94.8709 100.458C95.2187 100.125 95.4928 99.722 95.6754 99.2762C95.858 98.8303 95.9452 98.3511 95.9313 97.8694Z" fill="#0D0E10"/>
<path d="M103.011 98.1717C103.008 96.5732 103.479 95.0099 104.365 93.6795C105.251 92.349 106.512 91.3112 107.988 90.6974C109.463 90.0836 111.088 89.9215 112.656 90.2315C114.224 90.5415 115.665 91.3097 116.796 92.4388C117.927 93.5681 118.699 95.0075 119.012 96.575C119.325 98.1424 119.166 99.7675 118.555 101.244C117.944 102.722 116.908 103.984 115.579 104.872C114.25 105.761 112.688 106.235 111.09 106.235C110.026 106.247 108.972 106.047 107.987 105.646C107.003 105.245 106.108 104.652 105.356 103.901C104.603 103.15 104.008 102.257 103.606 101.273C103.203 100.289 103.001 99.2346 103.011 98.1717ZM114.599 98.1717C114.581 97.4816 114.36 96.8123 113.964 96.2472C113.568 95.682 113.014 95.2463 112.371 94.9946C111.728 94.7427 111.026 94.6861 110.351 94.8315C109.676 94.9771 109.059 95.3183 108.577 95.8125C108.096 96.3069 107.77 96.9322 107.642 97.6104C107.514 98.2887 107.588 98.9897 107.857 99.6256C108.125 100.262 108.574 100.805 109.149 101.186C109.724 101.568 110.399 101.772 111.09 101.772C111.559 101.781 112.026 101.693 112.46 101.514C112.894 101.335 113.287 101.068 113.613 100.73C113.94 100.392 114.193 99.9903 114.358 99.5502C114.522 99.1101 114.594 98.6408 114.569 98.1717H114.599Z" fill="#0D0E10"/>
<path d="M121.271 86.4633C121.271 85.9188 121.432 85.3864 121.735 84.9336C122.038 84.4809 122.467 84.1279 122.971 83.9195C123.474 83.7111 124.027 83.6566 124.562 83.7629C125.096 83.8691 125.586 84.1313 125.971 84.5164C126.356 84.9015 126.618 85.3921 126.725 85.9261C126.831 86.4602 126.776 87.0138 126.568 87.5169C126.36 88.0201 126.007 88.45 125.554 88.7526C125.102 89.0552 124.569 89.2166 124.024 89.2166C123.295 89.2126 122.597 88.9212 122.082 88.4058C121.566 87.8903 121.275 87.1923 121.271 86.4633ZM121.74 90.5479H126.278V105.797H121.74V90.5479Z" fill="#0D0E10"/>
<path d="M146.066 98.172C146.12 99.18 145.976 100.189 145.64 101.141C145.303 102.093 144.781 102.968 144.105 103.718C143.429 104.467 142.611 105.075 141.698 105.508C140.786 105.94 139.798 106.187 138.789 106.235C137.943 106.276 137.097 106.13 136.314 105.809C135.529 105.487 134.825 104.998 134.251 104.375V111.939H129.712V90.5474H134.251V91.9846C134.825 91.3614 135.529 90.8718 136.314 90.5502C137.097 90.2288 137.943 90.0832 138.789 90.1238C139.796 90.1723 140.784 90.4191 141.695 90.8502C142.606 91.2814 143.423 91.8882 144.099 92.636C144.776 93.3838 145.298 94.2579 145.635 95.2079C145.973 96.158 146.119 97.1653 146.066 98.172ZM141.527 98.172C141.51 97.462 141.284 96.7728 140.878 96.1899C140.472 95.6069 139.904 95.1557 139.244 94.8922C138.585 94.6288 137.863 94.5645 137.167 94.7076C136.471 94.8505 135.832 95.1943 135.33 95.6966C134.828 96.1988 134.484 96.8374 134.341 97.5331C134.198 98.2288 134.262 98.9512 134.526 99.6108C134.789 100.27 135.241 100.838 135.824 101.244C136.407 101.65 137.096 101.876 137.806 101.894C138.301 101.925 138.798 101.85 139.261 101.674C139.726 101.498 140.147 101.224 140.497 100.871C140.846 100.519 141.116 100.096 141.289 99.63C141.462 99.1644 141.533 98.6673 141.497 98.172H141.527Z" fill="#0D0E10"/>
<path d="M160.196 101.228C160.196 104.738 157.17 106.236 153.843 106.236C152.513 106.353 151.178 106.071 150.011 105.423C148.843 104.776 147.896 103.795 147.291 102.605L151.256 100.351C151.416 100.901 151.761 101.38 152.231 101.707C152.702 102.035 153.27 102.191 153.843 102.151C154.947 102.151 155.492 101.803 155.492 101.198C155.492 99.5188 147.928 100.411 147.928 95.1467C147.928 91.8185 150.741 90.1393 153.979 90.1393C155.173 90.103 156.355 90.3868 157.404 90.9615C158.452 91.536 159.327 92.3804 159.938 93.407L155.961 95.4947C155.784 95.0952 155.496 94.7553 155.131 94.5162C154.765 94.2773 154.34 94.1494 153.903 94.1483C153.117 94.1483 152.632 94.4508 152.632 95.0106C152.693 96.7503 160.196 95.5854 160.196 101.228Z" fill="#0D0E10"/>
<path d="M176.897 90.5479V105.797H172.358V104.375C171.83 105.007 171.161 105.505 170.403 105.828C169.646 106.152 168.823 106.291 168.001 106.236C164.976 106.236 162.298 104.042 162.298 99.9122V90.5479H166.837V99.2465C166.797 99.6172 166.84 99.9921 166.963 100.344C167.086 100.696 167.286 101.016 167.548 101.281C167.811 101.546 168.128 101.75 168.479 101.877C168.829 102.004 169.204 102.051 169.575 102.015C171.239 102.015 172.404 101.047 172.404 98.8835V90.5479H176.897Z" fill="#0D0E10"/>
<path d="M203.129 96.4473V105.796H198.59V96.8407C198.59 95.3278 197.849 94.3294 196.397 94.3294C194.945 94.3294 194.007 95.4035 194.007 97.2037V105.796H189.468V96.8407C189.468 95.3278 188.742 94.3294 187.275 94.3294C185.807 94.3294 184.9 95.4035 184.9 97.2037V105.796H180.361V90.5474H184.9V91.9543C185.374 91.333 185.997 90.84 186.71 90.5202C187.424 90.2006 188.206 90.0643 188.984 90.1238C189.767 90.0858 190.547 90.2512 191.246 90.6038C191.947 90.9563 192.543 91.4841 192.978 92.1358C193.485 91.4545 194.156 90.9125 194.928 90.5607C195.701 90.2088 196.549 90.0585 197.395 90.1238C200.845 90.1238 203.129 92.635 203.129 96.4473Z" fill="#0D0E10"/>
<path d="M207.002 90.4565C208.873 90.4565 210.39 88.9394 210.39 87.0678C210.39 85.1963 208.873 83.6792 207.002 83.6792C205.13 83.6792 203.613 85.1963 203.613 87.0678C203.613 88.9394 205.13 90.4565 207.002 90.4565Z" fill="#0D0E10"/>
<path d="M110.182 72.0005C118.947 72.0005 126.051 64.8955 126.051 56.1311C126.051 47.3667 118.947 40.2617 110.182 40.2617C101.417 40.2617 94.3124 47.3667 94.3124 56.1311C94.3124 64.8955 101.417 72.0005 110.182 72.0005Z" fill="#0D0E10"/>
<path d="M145.657 72.0005C154.422 72.0005 161.527 64.8955 161.527 56.1311C161.527 47.3667 154.422 40.2617 145.657 40.2617C136.893 40.2617 129.788 47.3667 129.788 56.1311C129.788 64.8955 136.893 72.0005 145.657 72.0005Z" fill="#0D0E10"/>
<path d="M90.5763 40.2617H58.8526V71.9854H90.5763V40.2617Z" fill="#0D0E10"/>
</g>
</svg>
