<svg width="173" height="40" viewBox="0 0 173 40" fill="none" xmlns="http://www.w3.org/2000/svg">
<path d="M0.331451 39.6983H39.1351V0.894531H0.331451V39.6983ZM31.6663 16.5628H23.4669V8.36329H31.6663V16.5628ZM7.7987 8.36329H16.0027V24.03H31.6663V32.2295H7.7987V8.36329ZM64.4036 0.894531C60.5663 0.894531 56.8152 2.03252 53.6246 4.16442C50.4339 6.29632 47.9472 9.32648 46.4787 12.8717C45.0103 16.4169 44.626 20.3179 45.3746 24.0815C46.1232 27.845 47.9711 31.3022 50.6845 34.0156C53.3979 36.729 56.8549 38.5768 60.6185 39.3254C64.3821 40.074 68.2831 39.6898 71.8288 38.2213C75.3735 36.7528 78.4037 34.2661 80.5356 31.0755C82.6675 27.8848 83.8056 24.1338 83.8056 20.2965C83.7998 15.1526 81.7529 10.2211 78.1163 6.58387C74.4786 2.9466 69.548 0.900583 64.4036 0.894531ZM64.4036 32.2295C62.0435 32.2295 59.7363 31.5296 57.774 30.2184C55.8116 28.9072 54.2821 27.0435 53.3789 24.8629C52.4758 22.6825 52.2394 20.2832 52.6999 17.9684C53.1603 15.6536 54.2968 13.5273 55.9657 11.8585C57.6346 10.1896 59.7608 9.05313 62.0756 8.59265C64.3904 8.13218 66.7898 8.36852 68.9708 9.27167C71.1504 10.1748 73.0146 11.7044 74.3261 13.6667C75.6365 15.6291 76.337 17.9363 76.337 20.2965C76.3324 23.4598 75.0732 26.4923 72.8366 28.7291C70.6 30.9659 67.567 32.2246 64.4036 32.2295ZM153.234 0.894531C149.397 0.894299 145.646 2.03193 142.455 4.1636C139.264 6.29539 136.777 9.32544 135.309 12.8707C133.84 16.4158 133.455 20.317 134.203 24.0806C134.953 27.8442 136.799 31.3015 139.513 34.015C142.227 36.7286 145.683 38.5766 149.448 39.3253C153.211 40.074 157.112 39.6899 160.658 38.2215C164.202 36.7531 167.233 34.2662 169.365 31.0756C171.496 27.885 172.635 24.1338 172.635 20.2965C172.629 15.1528 170.583 10.2216 166.946 6.58445C163.309 2.94718 158.378 0.901048 153.234 0.894531ZM153.234 32.2295C150.874 32.2298 148.567 31.5301 146.605 30.2191C144.642 28.9081 143.113 27.0445 142.208 24.864C141.305 22.6836 141.069 20.2843 141.529 17.9693C141.99 15.6545 143.125 13.528 144.794 11.859C146.463 10.1899 148.59 9.05336 150.905 8.59277C153.219 8.13218 155.619 8.36841 157.8 9.27156C159.979 10.1747 161.844 11.7042 163.155 13.6666C164.466 15.629 165.166 17.9363 165.166 20.2965C165.161 23.4595 163.902 26.4917 161.667 28.7285C159.43 30.9653 156.397 32.2243 153.234 32.2295ZM108.818 0.894531C104.982 0.894531 101.23 2.03252 98.0389 4.16442C94.8492 6.29632 92.3624 9.32648 90.8938 12.8717C89.4252 16.4169 89.0412 20.3179 89.7894 24.0815C90.5377 27.845 92.3856 31.3022 95.0994 34.0156C97.812 36.729 101.269 38.5768 105.033 39.3254C108.797 40.074 112.698 39.6898 116.243 38.2213C119.788 36.7528 122.819 34.2661 124.951 31.0755C127.083 27.8848 128.221 24.1338 128.221 20.2965C128.214 15.1526 126.168 10.2211 122.531 6.58387C118.894 2.9466 113.962 0.900583 108.818 0.894531ZM108.818 32.2295C106.619 32.2306 104.463 31.6241 102.587 30.4769C100.711 29.3298 99.1886 27.6866 98.1878 25.7287C97.1859 23.7708 96.746 21.5744 96.9147 19.382C97.0823 17.1896 97.8539 15.0863 99.1421 13.3044C100.43 11.5225 102.186 10.1312 104.216 9.28424C106.245 8.43718 108.469 8.16732 110.642 8.50445C112.814 8.84145 114.852 9.77242 116.529 11.1945C118.207 12.6165 119.458 14.4742 120.146 16.5628H108.818V24.03H120.146C119.358 26.4132 117.84 28.4878 115.806 29.9595C113.773 31.4312 111.328 32.2255 108.818 32.2295Z" fill="#0D0E10"/>
</svg>
