<svg width="226" height="22" viewBox="0 0 226 22" fill="none" xmlns="http://www.w3.org/2000/svg">
<path d="M112.581 21.0058H104.835V0.296778H112.581V21.0058ZM105.591 20.2493H111.825V1.05324H105.591V20.2493ZM123.36 21.0058H115.769V0.296778H131.628C133.899 0.112783 136.162 0.75054 138.003 2.09414C138.795 2.8193 139.41 3.71775 139.799 4.71942C140.186 5.72122 140.337 6.79901 140.241 7.869C140.354 9.71768 139.766 11.5411 138.593 12.9751C137.206 14.5667 134.897 15.3868 131.732 15.4155C130.935 15.4367 124.96 15.4155 123.364 15.4155L123.36 21.0058ZM116.522 20.2493H122.604V14.6515H122.983C123.06 14.6515 130.816 14.6757 131.714 14.6515C134.663 14.6257 136.782 13.895 138.022 12.4683C139.065 11.1708 139.583 9.52892 139.474 7.86748C139.567 6.90875 139.438 5.94164 139.097 5.04086C138.756 4.1402 138.211 3.33009 137.507 2.67359C135.8 1.44823 133.711 0.873085 131.617 1.05173H116.525L116.522 20.2493ZM130.02 10.7632H122.551V5.12605H130.07C130.604 5.05238 131.147 5.11453 131.65 5.30691C132.153 5.49917 132.598 5.81525 132.945 6.22596C133.26 6.75083 133.409 7.35902 133.372 7.97036C133.4 8.53783 133.278 9.10273 133.016 9.60735C132.658 10.0398 132.193 10.3728 131.67 10.5741C131.145 10.7756 130.577 10.8385 130.02 10.7572V10.7632ZM123.308 10.0068H130.02C131.261 10.0068 132.03 9.74806 132.37 9.2155C132.558 8.82843 132.642 8.39968 132.617 7.97036C132.651 7.51951 132.553 7.06877 132.335 6.67227L132.327 6.65865C131.966 6.12913 131.251 5.88252 130.07 5.88252H123.308V10.0068ZM154.046 21.3114C147.253 21.3114 143.198 19.6245 141.654 16.1553C141.401 15.4852 141.229 14.7873 141.143 14.0766L141.076 13.6408H149.158L149.211 13.9585C149.273 14.2811 149.41 14.5847 149.611 14.8451C149.929 15.2309 150.994 15.8785 154.529 15.8785C158.778 15.8785 158.778 15.1326 158.778 14.7317C158.778 14.0554 158.285 13.8239 154.821 13.4547L154.163 13.3927C152.859 13.2702 151.21 13.1143 150.457 13.0493C144.102 12.4744 141.265 10.5 141.265 6.64957C141.265 2.60551 146.092 -0.00732422 153.565 -0.00732422C159.661 -0.00732422 163.589 1.59941 165.236 4.77203C165.627 5.50999 165.89 6.30917 166.012 7.13523L166.065 7.56036H157.974L157.941 7.21844C157.908 6.95123 157.794 6.70055 157.614 6.50131C157.311 6.09584 156.355 5.42561 153.387 5.42561C149.742 5.42561 149.239 5.8916 149.239 6.39389C149.239 7.06412 150.391 7.30165 154.081 7.69652C155.619 7.8221 158.093 8.07627 158.941 8.17915C164.267 8.75709 166.645 10.6831 166.645 14.426C166.646 17.5654 164.459 21.3114 154.046 21.3114ZM141.96 14.3973C142.035 14.8962 142.166 15.3852 142.349 15.8558C143.756 19.0163 147.583 20.5549 154.046 20.5549C159.45 20.5549 165.894 19.4959 165.894 14.426C165.894 11.1082 163.791 9.46514 158.86 8.93107C158.013 8.82819 155.555 8.57553 154.019 8.44845C150.085 8.0218 148.486 7.79486 148.486 6.39389C148.486 4.9445 150.21 4.66915 153.389 4.66915C155.903 4.66915 157.526 5.12303 158.214 6.03835C158.402 6.26378 158.544 6.52388 158.632 6.80389H165.189C165.058 6.21874 164.848 5.6536 164.569 5.12303C163.056 2.21971 159.36 0.749143 153.569 0.749143C146.556 0.749143 142.025 3.06544 142.025 6.64957C142.025 10.0688 144.568 11.7572 150.525 12.2958C151.282 12.3609 152.93 12.5167 154.237 12.6408L154.9 12.7028C158.118 13.0417 159.537 13.2535 159.537 14.7317C159.537 16.3233 157.701 16.6349 154.532 16.6349C151.599 16.6349 149.748 16.1947 149.032 15.3277C148.812 15.0512 148.646 14.7356 148.542 14.3973H141.96ZM181.018 21.2857C173.12 21.2857 168.763 18.0919 168.763 12.2913V0.296778H176.406V12.2913C176.406 14.2808 178.186 15.4216 181.29 15.4216C184.256 15.4216 186.097 14.2309 186.097 12.317V0.296778H193.661V12.9267C193.668 18.2386 189.055 21.2857 181.013 21.2857H181.018ZM169.52 1.05324V12.2913C169.52 19.4596 176.718 20.5292 181.018 20.5292C185.462 20.5292 192.916 19.5413 192.916 12.9267V1.05324H186.865V12.317C186.865 14.6621 184.68 16.178 181.302 16.178C177.771 16.178 175.662 14.7256 175.662 12.2913V1.05324H169.52ZM225.717 21.0058H218.504V11.6559L214.412 21.0058H208.12L204.071 11.674V21.0058H196.831V0.296778H206.355L211.302 11.7149L216.488 0.296778H225.726L225.717 21.0058ZM219.26 20.2493H224.96V1.05324H216.969L211.278 13.5788L205.852 1.05324H197.582V20.2493H203.309V8.0339L208.604 20.2539H213.9L219.251 8.05206L219.26 20.2493ZM7.22247 0.675008H0.332581V20.6275H19.3713V15.3156H7.22247V0.675008ZM33.2782 0.221129C24.4835 0.221129 19.8585 4.38925 19.8585 10.5091C19.8585 17.4232 24.7135 20.9301 33.2782 20.9301C42.7067 20.9301 46.6721 16.8634 46.6721 10.5091C46.6721 4.05641 42.1984 0.218106 33.2782 0.218106V0.221129ZM33.2524 5.40594C33.8511 5.40304 34.4494 5.43795 35.0438 5.51034L27.3414 13.2127C26.9768 12.3882 26.7991 11.4934 26.821 10.5923C26.821 7.46202 28.3974 5.40292 33.2524 5.40292V5.40594ZM33.2782 15.827C32.7013 15.8295 32.1248 15.7972 31.5518 15.7302L39.2679 8.01424C39.6187 8.82494 39.7866 9.70313 39.7596 10.5862C39.7596 13.6317 38.3071 15.824 33.2782 15.824V15.827ZM60.3233 13.1037H67.4144C67.31 13.5958 67.0925 14.0568 66.7789 14.4502C65.3089 15.6479 63.4326 16.2306 61.5427 16.0766C60.5915 16.1784 59.6294 16.0744 58.7217 15.772C57.8142 15.4694 56.9822 14.9754 56.2823 14.3232C55.5653 13.2714 55.2246 12.0085 55.3155 10.739C55.1995 9.4087 55.5698 8.0815 56.3578 7.0036C57.3488 5.88403 59.0267 5.40141 61.4928 5.40141C63.0618 5.27141 64.629 5.67443 65.9408 6.54518C66.3542 6.87361 66.6633 7.31503 66.8303 7.81604H73.407C73.3592 6.99068 73.1608 6.18103 72.8215 5.42713C71.2466 2.22425 67.5854 0.317959 61.3597 0.317959C55.9449 0.317959 52.3108 1.97008 50.3032 4.46188C48.9771 6.26122 48.2966 8.45508 48.3712 10.6891C48.2854 12.9735 48.9484 15.2235 50.2593 17.0964C52.2428 19.6683 55.7754 20.9332 60.0207 20.9332C62.8432 21.13 65.6462 20.3394 67.95 18.697L68.1285 20.6275H73.5917V8.80853H60.3233V13.1037ZM89.0976 0.216592C80.3045 0.216592 75.6781 4.38472 75.6781 10.5045C75.6781 17.4186 80.5314 20.9256 89.0976 20.9256C98.5282 20.9256 102.493 16.8588 102.493 10.5045C102.493 4.05641 98.0196 0.218106 89.0976 0.218106V0.216592ZM89.0734 5.40141C89.6565 5.39966 90.239 5.43295 90.8178 5.50126L83.1458 13.1779C82.7928 12.3625 82.6209 11.4804 82.642 10.5923C82.6359 7.46202 84.2184 5.40292 89.0734 5.40292V5.40141ZM89.0976 15.8225C88.5056 15.8249 87.9139 15.7906 87.3261 15.7196L95.0683 7.97641C95.4314 8.79793 95.6059 9.69103 95.578 10.5892C95.5803 13.6318 94.1342 15.824 89.0976 15.824V15.8225Z" fill="#0D0E10"/>
</svg>
