<svg width="140" height="40" viewBox="0 0 140 40" fill="none" xmlns="http://www.w3.org/2000/svg">
<path d="M73.392 14.1158C74.992 14.1158 76.4 14.4891 77.616 15.2358C78.832 15.9611 79.7707 16.9638 80.432 18.2438C81.1147 19.5238 81.456 20.9531 81.456 22.5318C81.456 24.1105 81.1147 25.5398 80.432 26.8198C79.7707 28.0785 78.832 29.0811 77.616 29.8278C76.4 30.5531 74.992 30.9158 73.392 30.9158C72.2827 30.9158 71.216 30.6811 70.192 30.2118C69.168 29.7425 68.2827 29.1025 67.536 28.2918V30.4998H64.176V8.09977H67.536V16.7718C68.2827 15.9398 69.168 15.2891 70.192 14.8198C71.216 14.3505 72.2827 14.1158 73.392 14.1158ZM73.008 27.6838C73.968 27.6838 74.832 27.4705 75.6 27.0438C76.3893 26.5958 76.9973 25.9771 77.424 25.1878C77.872 24.3985 78.096 23.5131 78.096 22.5318C78.096 21.5505 77.872 20.6651 77.424 19.8758C76.9973 19.0865 76.3893 18.4785 75.6 18.0518C74.832 17.6038 73.968 17.3798 73.008 17.3798C72.048 17.3798 71.1627 17.6038 70.352 18.0518C69.5627 18.4785 68.9333 19.0865 68.464 19.8758C68.016 20.6438 67.792 21.5185 67.792 22.4998C67.792 23.4811 68.016 24.3665 68.464 25.1558C68.9333 25.9451 69.5627 26.5638 70.352 27.0118C71.1627 27.4598 72.048 27.6838 73.008 27.6838ZM85.9433 11.3318C85.3033 11.3318 84.7913 11.1611 84.4073 10.8198C84.0446 10.4571 83.8633 9.96644 83.8633 9.34777C83.8633 8.7291 84.0446 8.2491 84.4073 7.90777C84.7913 7.5451 85.3033 7.36377 85.9433 7.36377C86.5833 7.36377 87.0846 7.5451 87.4473 7.90777C87.8313 8.2491 88.0233 8.7291 88.0233 9.34777C88.0233 9.96644 87.8313 10.4571 87.4473 10.8198C87.0846 11.1611 86.5833 11.3318 85.9433 11.3318ZM84.2473 30.4998V14.4998H87.6073V30.4998H84.2473ZM102.659 16.6758L94.8825 27.2998H102.979V30.4998H90.1785V28.3238L98.0505 17.6998H90.4985V14.4998H102.659V16.6758ZM117.323 16.6758L109.547 27.2998H117.643V30.4998H104.843V28.3238L112.715 17.6998H105.163V14.4998H117.323V16.6758ZM130.997 14.4998H134.549L128.693 30.8198C127.882 32.8891 126.783 34.4571 125.397 35.5238C124.01 36.5905 122.399 37.0491 120.564 36.8998V33.6678C120.671 33.6891 120.831 33.6998 121.044 33.6998C122.922 33.6998 124.373 32.4945 125.397 30.0838L118.228 14.4998H121.845L126.997 25.6038L130.997 14.4998ZM133.655 28.9638C133.655 28.3665 133.815 27.9078 134.135 27.5878C134.455 27.2465 134.914 27.0758 135.511 27.0758C136.108 27.0758 136.567 27.2465 136.887 27.5878C137.207 27.9078 137.367 28.3665 137.367 28.9638C137.367 29.5825 137.207 30.0625 136.887 30.4038C136.567 30.7238 136.108 30.8838 135.511 30.8838C134.914 30.8838 134.455 30.7238 134.135 30.4038C133.815 30.0625 133.655 29.5825 133.655 28.9638Z" fill="#0B141F"/>
<path d="M16.4992 2.5H37.5808L22.0816 25.4729H1L16.4992 2.5Z" fill="#007E60"/>
<path d="M17.4224 27.6022L11.4192 36.5002H33.5008L49 13.5273H32.7024L23.2064 27.6022H17.4224Z" fill="#FFD124"/>
</svg>
