<svg width="22" height="23" viewBox="0 0 22 23" fill="none" xmlns="http://www.w3.org/2000/svg">
<path opacity="0.15" d="M17.3137 4.99268C18.2257 4.99268 18.6617 6.11356 17.9894 6.72983L12.3513 11.898C11.5867 12.5989 10.413 12.5989 9.6484 11.898L4.01031 6.72983C3.33802 6.11356 3.77403 4.99268 4.68604 4.99268H17.3137Z" fill="#007E60"/>
<path d="M17.8845 4.99268H4.11523C3.01066 4.99268 2.11523 5.8881 2.11523 6.99267V16.3195C2.11523 17.4241 3.01067 18.3195 4.11523 18.3195H17.8845C18.989 18.3195 19.8845 17.4241 19.8845 16.3195V6.99268C19.8845 5.88811 18.989 4.99268 17.8845 4.99268Z" stroke="#007E60" stroke-width="1.2" stroke-linecap="round" stroke-linejoin="round"/>
<path d="M19.2926 5.7334L12.3612 12.1697C11.5939 12.8822 10.4068 12.8822 9.63942 12.1697L2.70801 5.7334" stroke="#007E60" stroke-width="1.2" stroke-linecap="round" stroke-linejoin="round"/>
</svg>
