<svg width="22" height="23" viewBox="0 0 22 23" fill="none" xmlns="http://www.w3.org/2000/svg">
<path opacity="0.15" d="M7.94718 11.3826C8.66032 12.8405 9.84213 14.017 11.3033 14.7235C11.4102 14.7741 11.5285 14.7961 11.6465 14.7871C11.7644 14.7782 11.878 14.7387 11.9761 14.6726L14.1276 13.2379C14.2228 13.1744 14.3322 13.1357 14.4461 13.1253C14.56 13.1148 14.6747 13.1329 14.7798 13.178L18.8049 14.903C18.9416 14.9611 19.0558 15.062 19.1302 15.1906C19.2045 15.3192 19.2351 15.4685 19.2173 15.616C19.09 16.6115 18.6043 17.5265 17.851 18.1897C17.0978 18.8528 16.1286 19.2187 15.125 19.2188C12.0253 19.2188 9.05252 17.9874 6.86069 15.7956C4.66886 13.6037 3.4375 10.631 3.4375 7.5313C3.43755 6.5277 3.80342 5.55853 4.46659 4.80526C5.12975 4.05199 6.04475 3.56627 7.04026 3.43905C7.18774 3.4212 7.33703 3.45176 7.46562 3.52614C7.59422 3.60051 7.69517 3.71466 7.75325 3.85139L9.47978 7.87996C9.52444 7.98416 9.54264 8.09779 9.53275 8.21073C9.52287 8.32366 9.4852 8.4324 9.42312 8.52726L7.99343 10.7117C7.92836 10.81 7.88989 10.9235 7.88179 11.041C7.87368 11.1586 7.89621 11.2763 7.94718 11.3826Z" fill="#007E60"/>
<path d="M7.94718 11.3826C8.66032 12.8405 9.84213 14.017 11.3033 14.7235C11.4102 14.7741 11.5285 14.7961 11.6465 14.7871C11.7644 14.7782 11.878 14.7387 11.9761 14.6726L14.1276 13.2379C14.2228 13.1744 14.3322 13.1357 14.4461 13.1253C14.56 13.1148 14.6747 13.1329 14.7798 13.178L18.8049 14.903C18.9416 14.9611 19.0558 15.062 19.1302 15.1906C19.2045 15.3192 19.2351 15.4685 19.2173 15.616C19.09 16.6115 18.6043 17.5265 17.851 18.1897C17.0978 18.8528 16.1286 19.2187 15.125 19.2188C12.0253 19.2188 9.05252 17.9874 6.86069 15.7956C4.66886 13.6037 3.4375 10.631 3.4375 7.5313C3.43755 6.5277 3.80342 5.55853 4.46659 4.80526C5.12975 4.05199 6.04475 3.56627 7.04026 3.43905C7.18774 3.4212 7.33703 3.45176 7.46562 3.52614C7.59422 3.60051 7.69517 3.71466 7.75325 3.85139L9.47978 7.87996C9.52444 7.98416 9.54264 8.09779 9.53275 8.21073C9.52287 8.32366 9.4852 8.4324 9.42312 8.52726L7.99343 10.7117C7.92836 10.81 7.88989 10.9235 7.88179 11.041C7.87368 11.1586 7.89621 11.2763 7.94718 11.3826Z" stroke="#007E60" stroke-width="1.2" stroke-linecap="round" stroke-linejoin="round"/>
</svg>
