<svg width="14" height="17" viewBox="0 0 14 17" fill="none" xmlns="http://www.w3.org/2000/svg">
<path d="M13.165 7.08957L1.91749 0.21578C1.72803 0.0999302 1.51113 0.0366502 1.2891 0.0324502C1.06707 0.0282502 0.847945 0.0832802 0.654235 0.19188C0.460535 0.30048 0.299275 0.45872 0.187025 0.65033C0.0747851 0.84195 0.015625 1.06 0.015625 1.28207V15.0308C0.015805 15.2528 0.0750851 15.4708 0.187365 15.6623C0.299655 15.8538 0.460895 16.012 0.654535 16.1206C0.848175 16.229 1.06722 16.2842 1.28918 16.2801C1.51113 16.2759 1.728 16.2128 1.91749 16.0972L13.165 9.22335C13.3477 9.11165 13.4987 8.95485 13.6034 8.76805C13.7082 8.58125 13.7632 8.37065 13.7632 8.15645C13.7632 7.94229 13.7082 7.73171 13.6034 7.5449C13.4987 7.35808 13.3477 7.2013 13.165 7.08957Z" fill="#F0F9F5"/>
</svg>
