<svg width="74" height="30" viewBox="0 0 74 30" fill="none" xmlns="http://www.w3.org/2000/svg">
<path d="M9.39202 7.11577C10.992 7.11577 12.4 7.48907 13.616 8.23577C14.832 8.96107 15.7707 9.96377 16.432 11.2438C17.1147 12.5238 17.456 13.9531 17.456 15.5318C17.456 17.1105 17.1147 18.5398 16.432 19.8198C15.7707 21.0785 14.832 22.0811 13.616 22.8278C12.4 23.5531 10.992 23.9158 9.39202 23.9158C8.28272 23.9158 7.21602 23.6811 6.19202 23.2118C5.16802 22.7425 4.28273 22.1025 3.53603 21.2918V23.4998H0.176025V1.09977H3.53603V9.77177C4.28273 8.93977 5.16802 8.28907 6.19202 7.81977C7.21602 7.35047 8.28272 7.11577 9.39202 7.11577ZM9.00803 20.6838C9.96803 20.6838 10.832 20.4705 11.6 20.0438C12.3893 19.5958 12.9973 18.9771 13.424 18.1878C13.872 17.3985 14.096 16.5131 14.096 15.5318C14.096 14.5505 13.872 13.6651 13.424 12.8758C12.9973 12.0865 12.3893 11.4785 11.6 11.0518C10.832 10.6038 9.96803 10.3798 9.00803 10.3798C8.04803 10.3798 7.16272 10.6038 6.35202 11.0518C5.56272 11.4785 4.93332 12.0865 4.46402 12.8758C4.01602 13.6438 3.79202 14.5185 3.79202 15.4998C3.79202 16.4811 4.01602 17.3665 4.46402 18.1558C4.93332 18.9451 5.56272 19.5638 6.35202 20.0118C7.16272 20.4598 8.04803 20.6838 9.00803 20.6838ZM21.9433 4.33177C21.3033 4.33177 20.7913 4.16107 20.4073 3.81977C20.0446 3.4571 19.8633 2.96644 19.8633 2.34777C19.8633 1.7291 20.0446 1.2491 20.4073 0.90777C20.7913 0.5451 21.3033 0.36377 21.9433 0.36377C22.5833 0.36377 23.0846 0.5451 23.4473 0.90777C23.8313 1.2491 24.0233 1.7291 24.0233 2.34777C24.0233 2.96644 23.8313 3.4571 23.4473 3.81977C23.0846 4.16107 22.5833 4.33177 21.9433 4.33177ZM20.2473 23.4998V7.49977H23.6073V23.4998H20.2473ZM38.659 9.67577L30.8825 20.2998H38.979V23.4998H26.1785V21.3238L34.0505 10.6998H26.4985V7.49977H38.659V9.67577ZM53.323 9.67577L45.547 20.2998H53.643V23.4998H40.843V21.3238L48.715 10.6998H41.163V7.49977H53.323V9.67577ZM66.997 7.49977H70.549L64.693 23.8198C63.882 25.8891 62.783 27.4571 61.397 28.5238C60.01 29.5905 58.399 30.0491 56.564 29.8998V26.6678C56.671 26.6891 56.831 26.6998 57.044 26.6998C58.922 26.6998 60.373 25.4945 61.397 23.0838L54.228 7.49977H57.845L62.997 18.6038L66.997 7.49977ZM69.655 21.9638C69.655 21.3665 69.815 20.9078 70.135 20.5878C70.455 20.2465 70.914 20.0758 71.511 20.0758C72.108 20.0758 72.567 20.2465 72.887 20.5878C73.207 20.9078 73.367 21.3665 73.367 21.9638C73.367 22.5825 73.207 23.0625 72.887 23.4038C72.567 23.7238 72.108 23.8838 71.511 23.8838C70.914 23.8838 70.455 23.7238 70.135 23.4038C69.815 23.0625 69.655 22.5825 69.655 21.9638Z" fill="#0B141F"/>
</svg>
