<svg width="80" height="81" viewBox="0 0 80 81" fill="none" xmlns="http://www.w3.org/2000/svg">
<g clip-path="url(#clip0_1_81)">
<path d="M60 0.65625H20C8.9543 0.65625 0 9.61055 0 20.6562V60.6562C0 71.7019 8.9543 80.6562 20 80.6562H60C71.0457 80.6562 80 71.7019 80 60.6562V20.6562C80 9.61055 71.0457 0.65625 60 0.65625Z" fill="#007E60"/>
<path opacity="0.2" d="M22.915 53.8925L27.9349 38.8329C28.0232 38.5679 28.1927 38.3374 28.4193 38.1741C28.6459 38.0108 28.9181 37.9229 29.1974 37.9229H52.1925V33.9305C52.1925 33.5776 52.0523 33.2391 51.8027 32.9895C51.5532 32.74 51.2147 32.5998 50.8617 32.5998H39.3282C39.0402 32.5998 38.76 32.5064 38.5297 32.3336L33.9163 28.8735C33.6859 28.7008 33.4057 28.6074 33.1178 28.6074H24.2458C23.8929 28.6074 23.5544 28.7476 23.3048 28.9972C23.0552 29.2467 22.915 29.5852 22.915 29.9382V53.8925Z" fill="white"/>
<path d="M22.915 53.8925V29.9382C22.915 29.5852 23.0552 29.2467 23.3048 28.9972C23.5544 28.7476 23.8929 28.6074 24.2458 28.6074H33.1178C33.4057 28.6074 33.6859 28.7008 33.9163 28.8735L38.5297 32.3336C38.76 32.5064 39.0402 32.5998 39.3282 32.5998H50.8617C51.2147 32.5998 51.5532 32.74 51.8027 32.9895C52.0523 33.2391 52.1925 33.5776 52.1925 33.9305V37.9229" stroke="white" stroke-width="2.5" stroke-linecap="round" stroke-linejoin="round"/>
<path d="M22.915 53.8925L27.9349 38.8329C28.0232 38.5679 28.1927 38.3373 28.4193 38.174C28.6459 38.0107 28.9181 37.9229 29.1974 37.9229H55.6693C55.8802 37.9229 56.088 37.9729 56.2757 38.069C56.4634 38.1651 56.6256 38.3045 56.7489 38.4756C56.8722 38.6467 56.9531 38.8446 56.9849 39.053C57.0167 39.2615 56.9985 39.4744 56.9318 39.6745L52.1925 53.8925H22.915Z" stroke="white" stroke-width="2.5" stroke-linecap="round" stroke-linejoin="round"/>
</g>
<defs>
<clipPath id="clip0_1_81">
<rect width="80" height="80" fill="white" transform="translate(0 0.65625)"/>
</clipPath>
</defs>
</svg>
